STARTFONT 2.1
FONT -FontForge-Monoton-Book-R-Normal--18-180-72-72-P-121-ISO10646-1
SIZE 18 72 72
FONTBOUNDINGBOX 34 28 -3 -7
COMMENT "Generated by fontforge, http://fontforge.sourceforge.net"
COMMENT "Copyright (c) 2011 by vernon adams. All rights reserved."
STARTPROPERTIES 40
FOUNDRY "FontForge"
FAMILY_NAME "Monoton"
WEIGHT_NAME "Book"
SLANT "R"
SETWIDTH_NAME "Normal"
ADD_STYLE_NAME ""
PIXEL_SIZE 18
POINT_SIZE 180
RESOLUTION_X 72
RESOLUTION_Y 72
SPACING "P"
AVERAGE_WIDTH 121
CHARSET_REGISTRY "ISO10646"
CHARSET_ENCODING "1"
FONTNAME_REGISTRY ""
CHARSET_COLLECTIONS "ISO8859-2 ISO8859-9 ISO8859-4 ISO10646-1"
FONT_NAME "Monoton-Regular"
FACE_NAME "Monoton"
COPYRIGHT "Copyright (c) 2011 by vernon adams. All rights reserved."
FONT_VERSION "1.000"
FONT_ASCENT 14
FONT_DESCENT 4
UNDERLINE_POSITION -1
UNDERLINE_THICKNESS 1
X_HEIGHT 12
CAP_HEIGHT 14
DEFAULT_CHAR 1
RAW_ASCENT 799
RAW_DESCENT 200
NORM_SPACE 2
RELATIVE_WEIGHT 40
RELATIVE_SETWIDTH 50
SUPERSCRIPT_X 0
SUPERSCRIPT_Y 6
SUPERSCRIPT_SIZE 10
SUBSCRIPT_X 0
SUBSCRIPT_Y 1
SUBSCRIPT_SIZE 10
AVG_LOWERCASE_WIDTH 130
AVG_UPPERCASE_WIDTH 142
ENDPROPERTIES
CHARS 372
STARTCHAR glyph1.dup1
ENCODING 0
SWIDTH 108 0
DWIDTH 2 0
BBX 1 1 0 0
BITMAP
00
ENDCHAR
STARTCHAR uni0002
ENCODING 2
SWIDTH 108 0
DWIDTH 2 0
BBX 1 1 0 0
BITMAP
00
ENDCHAR
STARTCHAR uni0009
ENCODING 9
SWIDTH 108 0
DWIDTH 2 0
BBX 1 1 0 0
BITMAP
00
ENDCHAR
STARTCHAR uni000A
ENCODING 10
SWIDTH 108 0
DWIDTH 2 0
BBX 1 1 0 0
BITMAP
00
ENDCHAR
STARTCHAR uni000D
ENCODING 13
SWIDTH 108 0
DWIDTH 2 0
BBX 1 1 0 0
BITMAP
00
ENDCHAR
STARTCHAR space
ENCODING 32
SWIDTH 108 0
DWIDTH 2 0
BBX 1 1 0 0
BITMAP
00
ENDCHAR
STARTCHAR exclam
ENCODING 33
SWIDTH 336 0
DWIDTH 6 0
BBX 4 16 1 -1
BITMAP
F0
F0
F0
F0
F0
F0
F0
F0
F0
F0
F0
00
F0
00
F0
F0
ENDCHAR
STARTCHAR quotedbl
ENCODING 34
SWIDTH 538 0
DWIDTH 10 0
BBX 8 6 1 9
BITMAP
E7
E7
E7
E7
E7
E7
ENDCHAR
STARTCHAR numbersign
ENCODING 35
SWIDTH 1014 0
DWIDTH 18 0
BBX 18 16 0 -1
BITMAP
034B00
038D00
1DFDC0
058E00
1EF7C0
3FFB80
0B1A00
0B1C00
0D2C00
0E3400
77F700
77BF00
1A5800
FDEE00
2C6800
2C7000
ENDCHAR
STARTCHAR dollar
ENCODING 36
SWIDTH 686 0
DWIDTH 12 0
BBX 12 20 0 -3
BITMAP
0500
0500
1BC0
2FB0
57E0
7B40
BC80
B700
68C0
57A0
2F50
1EB0
01B0
1EB0
7F50
B9A0
76C0
0F00
0500
0500
ENDCHAR
STARTCHAR percent
ENCODING 37
SWIDTH 1504 0
DWIDTH 27 0
BBX 27 16 0 -1
BITMAP
1F838000
2F458000
56C68000
7D670000
BAE70000
BAEB1F00
B76D2E80
6EAE7D40
3F4EB7C0
1196DBA0
0E1AEB60
001CDDA0
001CAEC0
002C5B40
00343580
00380E00
ENDCHAR
STARTCHAR ampersand
ENCODING 38
SWIDTH 1029 0
DWIDTH 19 0
BBX 17 15 1 0
BITMAP
1FB600
203600
7FB600
DFB600
EFB600
F03600
EFF780
DFF780
D03600
FFF780
FFF780
D02C00
AFDF80
5FCB80
3FC780
ENDCHAR
STARTCHAR quotesingle
ENCODING 39
SWIDTH 257 0
DWIDTH 5 0
BBX 3 6 1 9
BITMAP
E0
E0
E0
E0
E0
E0
ENDCHAR
STARTCHAR parenleft
ENCODING 40
SWIDTH 410 0
DWIDTH 7 0
BBX 6 16 1 -1
BITMAP
3C
5C
AC
D4
F8
F0
F0
F0
F0
F0
F0
F0
DC
AC
5C
3C
ENDCHAR
STARTCHAR parenright
ENCODING 41
SWIDTH 408 0
DWIDTH 7 0
BBX 6 16 1 -1
BITMAP
E0
D0
E8
B4
6C
6C
6C
6C
6C
6C
6C
6C
B4
D8
F0
E0
ENDCHAR
STARTCHAR asterisk
ENCODING 42
SWIDTH 664 0
DWIDTH 12 0
BBX 10 11 1 2
BITMAP
1A00
1A00
7B80
DAC0
BB40
6D80
DA80
FBC0
BB40
5A80
1A00
ENDCHAR
STARTCHAR plus
ENCODING 43
SWIDTH 601 0
DWIDTH 11 0
BBX 9 8 1 3
BITMAP
3600
3600
F780
F780
F780
3600
3600
3600
ENDCHAR
STARTCHAR comma
ENCODING 44
SWIDTH 252 0
DWIDTH 5 0
BBX 3 6 1 -3
BITMAP
E0
E0
60
A0
40
80
ENDCHAR
STARTCHAR hyphen
ENCODING 45
SWIDTH 473 0
DWIDTH 9 0
BBX 7 3 1 6
BITMAP
FE
FE
FE
ENDCHAR
STARTCHAR period
ENCODING 46
SWIDTH 255 0
DWIDTH 5 0
BBX 3 3 1 0
BITMAP
E0
E0
E0
ENDCHAR
STARTCHAR slash
ENCODING 47
SWIDTH 447 0
DWIDTH 8 0
BBX 8 17 0 -2
BITMAP
0B
0D
0E
16
16
1A
1C
2C
2C
34
38
58
58
68
70
B0
B0
ENDCHAR
STARTCHAR zero
ENCODING 48
SWIDTH 843 0
DWIDTH 15 0
BBX 14 16 1 -1
BITMAP
1FC0
2FA0
5750
AAE8
DDD8
E874
F074
B06C
B06C
F074
E8B8
B758
6FB0
3DD0
1A60
0780
ENDCHAR
STARTCHAR one
ENCODING 49
SWIDTH 426 0
DWIDTH 8 0
BBX 7 15 0 0
BITMAP
FE
00
FE
FE
2E
2E
2E
2E
2E
2E
2E
2E
2E
2E
2E
ENDCHAR
STARTCHAR two
ENCODING 50
SWIDTH 583 0
DWIDTH 11 0
BBX 10 15 0 0
BITMAP
FF00
7E80
7D40
1AC0
65C0
06C0
0B40
0D80
1B00
2D00
3A00
4400
7F80
7F80
7F80
ENDCHAR
STARTCHAR three
ENCODING 51
SWIDTH 612 0
DWIDTH 11 0
BBX 10 16 0 -1
BITMAP
FF00
7E80
3D40
5AC0
67C0
1FC0
01C0
1FC0
1EC0
1DC0
03C0
7DC0
7EC0
6740
9980
7E00
ENDCHAR
STARTCHAR four
ENCODING 52
SWIDTH 622 0
DWIDTH 11 0
BBX 10 15 1 0
BITMAP
1680
1B00
2D00
3600
3A00
6C00
7580
B580
D980
FFC0
FFC0
0000
FFC0
0180
0180
ENDCHAR
STARTCHAR five
ENCODING 53
SWIDTH 691 0
DWIDTH 12 0
BBX 12 16 0 -1
BITMAP
7FE0
0000
7FE0
7FE0
7000
7780
7740
70A0
7FD0
77B0
0170
1EB0
7F50
B9A0
66C0
1F00
ENDCHAR
STARTCHAR six
ENCODING 54
SWIDTH 781 0
DWIDTH 14 0
BBX 13 16 1 -1
BITMAP
1FC0
6FB0
7F60
D6C0
E980
F780
F360
FCD0
F7B0
F768
F0D8
DF68
AFB0
5DD0
3260
0F80
ENDCHAR
STARTCHAR seven
ENCODING 55
SWIDTH 631 0
DWIDTH 11 0
BBX 11 15 0 0
BITMAP
FEE0
0360
FFA0
FDC0
05C0
06C0
0740
0B80
0B80
0D80
0E80
0F00
1700
1B00
1D00
ENDCHAR
STARTCHAR eight
ENCODING 56
SWIDTH 808 0
DWIDTH 15 0
BBX 13 16 1 -1
BITMAP
3FC0
5FF0
AFB0
F758
F8B8
EFB8
D068
AFD0
DFA8
FF58
F0B8
EFD8
DFA8
78D0
2760
1F80
ENDCHAR
STARTCHAR nine
ENCODING 57
SWIDTH 782 0
DWIDTH 14 0
BBX 13 16 0 -1
BITMAP
1FC0
2FF0
57A8
6B58
BCB8
B8F8
7FF8
5778
2FF8
1FF8
0078
0FD8
3FA8
5CD0
3360
0F80
ENDCHAR
STARTCHAR colon
ENCODING 58
SWIDTH 262 0
DWIDTH 5 0
BBX 3 8 1 3
BITMAP
E0
E0
00
E0
00
E0
00
E0
ENDCHAR
STARTCHAR semicolon
ENCODING 59
SWIDTH 261 0
DWIDTH 5 0
BBX 3 11 1 0
BITMAP
E0
E0
00
E0
00
E0
E0
E0
60
A0
C0
ENDCHAR
STARTCHAR less
ENCODING 60
SWIDTH 670 0
DWIDTH 12 0
BBX 10 13 1 1
BITMAP
0040
03C0
0D80
76C0
BB40
DD80
6E00
B300
FEC0
6D80
1BC0
0740
00C0
ENDCHAR
STARTCHAR equal
ENCODING 61
SWIDTH 473 0
DWIDTH 9 0
BBX 7 8 1 3
BITMAP
FE
FE
00
FE
00
FE
00
FE
ENDCHAR
STARTCHAR greater
ENCODING 62
SWIDTH 670 0
DWIDTH 12 0
BBX 10 13 1 1
BITMAP
8000
F000
6C00
DB80
B640
6D80
1EC0
3B40
DFC0
6D80
F600
B800
C000
ENDCHAR
STARTCHAR question
ENCODING 63
SWIDTH 693 0
DWIDTH 12 0
BBX 12 15 0 0
BITMAP
3F80
DF40
6FE0
36B0
1970
0170
3AB0
3B60
3BA0
3BC0
3800
0000
3800
3800
3800
ENDCHAR
STARTCHAR at
ENCODING 64
SWIDTH 1076 0
DWIDTH 19 0
BBX 18 17 1 -1
BITMAP
03F000
0DEC00
3E1A00
57F500
68CA80
B33580
E5EB40
EBDAC0
ED3AC0
ED3AC0
EAFAC0
D5F6C0
B3EF80
5C1F00
2BE000
17E000
0FF000
ENDCHAR
STARTCHAR A
ENCODING 65
SWIDTH 936 0
DWIDTH 17 0
BBX 17 15 0 0
BITMAP
036000
02E000
05D000
07B000
0B6800
0DD800
16B800
1B7400
1D6C00
2E5A00
37F600
3BEE00
6FFD00
741B00
B81680
ENDCHAR
STARTCHAR B
ENCODING 66
SWIDTH 862 0
DWIDTH 16 0
BBX 14 15 1 0
BITMAP
FFC0
8030
FFE8
FFD4
EFEC
F05C
F7EC
F7FC
F034
F7DC
F7EC
F034
F7F8
F7D8
F7E0
ENDCHAR
STARTCHAR C
ENCODING 67
SWIDTH 852 0
DWIDTH 15 0
BBX 15 16 0 -1
BITMAP
07F0
1BE8
2DDC
36B6
6B68
7410
B800
B800
B800
7400
6C38
57D4
2BEA
1774
0C98
03E0
ENDCHAR
STARTCHAR D
ENCODING 68
SWIDTH 886 0
DWIDTH 16 0
BBX 14 15 1 0
BITMAP
FF80
8060
FFF0
FFD8
EFB4
F06C
F05C
F03C
F03C
F05C
FFAC
E054
DFA8
FFD0
FFE0
ENDCHAR
STARTCHAR E
ENCODING 69
SWIDTH 706 0
DWIDTH 13 0
BBX 11 15 1 0
BITMAP
EFE0
F000
FFE0
EFE0
F000
F000
EF00
EF00
FF00
F000
F000
F000
FFE0
EFE0
EFE0
ENDCHAR
STARTCHAR F
ENCODING 70
SWIDTH 683 0
DWIDTH 12 0
BBX 11 15 1 0
BITMAP
EFE0
F000
FFE0
EFE0
F000
F000
F000
FFC0
EFC0
EFC0
F000
F000
F000
F000
F000
ENDCHAR
STARTCHAR G
ENCODING 71
SWIDTH 908 0
DWIDTH 16 0
BBX 16 16 0 -1
BITMAP
07F0
1BE8
2DDC
36B6
6B68
7410
B800
B81B
B81B
B81B
6C1B
5FFB
2BFB
177B
0C9B
03E0
ENDCHAR
STARTCHAR H
ENCODING 72
SWIDTH 901 0
DWIDTH 16 0
BBX 14 15 1 0
BITMAP
F03C
F03C
F03C
F03C
F03C
F03C
EFFC
EFFC
FFFC
F03C
F03C
F03C
F03C
F03C
F03C
ENDCHAR
STARTCHAR I
ENCODING 73
SWIDTH 338 0
DWIDTH 6 0
BBX 4 15 1 0
BITMAP
F0
F0
F0
F0
F0
F0
F0
F0
F0
F0
F0
F0
F0
F0
F0
ENDCHAR
STARTCHAR J
ENCODING 74
SWIDTH 434 0
DWIDTH 8 0
BBX 7 16 0 -1
BITMAP
2E
2E
2E
2E
2E
2E
2E
2E
2E
2E
2E
D6
EA
34
D8
E0
ENDCHAR
STARTCHAR K
ENCODING 75
SWIDTH 815 0
DWIDTH 15 0
BBX 13 15 1 0
BITMAP
F0B8
F0E8
F170
F1D0
F2E0
F3A0
F5C0
F740
F6C0
F5A0
F360
F2D0
F1B0
F168
F0D8
ENDCHAR
STARTCHAR L
ENCODING 76
SWIDTH 604 0
DWIDTH 11 0
BBX 9 15 1 0
BITMAP
F000
F000
F000
F000
F000
F000
F000
F000
F000
F000
F000
F000
FF80
EF80
EF80
ENDCHAR
STARTCHAR M
ENCODING 77
SWIDTH 920 0
DWIDTH 17 0
BBX 15 15 1 0
BITMAP
D01A
B02E
E836
D85A
B46A
ECB6
FAD6
F776
EDB6
FB76
F6B6
F136
F036
F036
F036
ENDCHAR
STARTCHAR N
ENCODING 78
SWIDTH 877 0
DWIDTH 16 0
BBX 14 15 1 0
BITMAP
D85C
B45C
EC5C
B65C
ED5C
DB5C
F6DC
EBDC
F6DC
F5AC
F36C
F2DC
F16C
F0DC
F0F4
ENDCHAR
STARTCHAR O
ENCODING 79
SWIDTH 933 0
DWIDTH 17 0
BBX 16 16 0 -1
BITMAP
07F0
1BE8
2DDC
36B6
6B6D
741B
B817
B80F
B80F
7417
6C2B
57D6
2BEA
1774
0C98
03E0
ENDCHAR
STARTCHAR P
ENCODING 80
SWIDTH 850 0
DWIDTH 15 0
BBX 14 15 1 0
BITMAP
FFC0
8030
FFE8
FFD8
EFB4
F06C
F06C
F7B4
F7D8
F7F0
F7E0
F000
F000
F000
F000
ENDCHAR
STARTCHAR Q
ENCODING 81
SWIDTH 937 0
DWIDTH 17 0
BBX 16 17 0 -2
BITMAP
07F0
1BE8
2DDC
36B6
6B6D
741B
B817
B80F
B82F
74D7
6CAB
57D6
2BEA
1774
0C9A
03F6
0008
ENDCHAR
STARTCHAR R
ENCODING 82
SWIDTH 843 0
DWIDTH 15 0
BBX 14 15 1 0
BITMAP
FFC0
8030
FFE8
FFD8
EFB4
F06C
F7F4
F058
F7A8
F7D0
F7E0
F1D0
F170
F0F0
F0E8
ENDCHAR
STARTCHAR S
ENCODING 83
SWIDTH 682 0
DWIDTH 12 0
BBX 12 16 0 -1
BITMAP
1FC0
2FB0
57E0
7E40
B980
BF00
78C0
57A0
2F60
1ED0
01B0
1ED0
7F60
B9A0
66C0
1F00
ENDCHAR
STARTCHAR T
ENCODING 84
SWIDTH 591 0
DWIDTH 11 0
BBX 9 15 1 0
BITMAP
FF80
0000
FF80
FF80
3A00
3A00
3A00
3A00
3A00
3A00
3A00
3A00
3A00
3A00
3A00
ENDCHAR
STARTCHAR U
ENCODING 85
SWIDTH 905 0
DWIDTH 16 0
BBX 15 16 1 -1
BITMAP
F03A
F03A
F03A
F03A
F03A
F03A
F03A
F03A
F03A
F03A
D85C
B7AC
5FD8
2CF0
1B60
0780
ENDCHAR
STARTCHAR V
ENCODING 86
SWIDTH 940 0
DWIDTH 17 0
BBX 17 15 0 0
BITMAP
B80E80
741700
6C1B00
5C2D00
3A3600
2E3A00
1D5C00
1B6C00
17B400
0ED800
0DE800
077000
07B000
05D000
036000
ENDCHAR
STARTCHAR W
ENCODING 87
SWIDTH 1161 0
DWIDTH 21 0
BBX 21 15 0 0
BITMAP
B8E8E8
B8E970
757970
6DB5B0
5DD5D0
3DDEE0
3AFB60
377B60
2FB5A0
1DADC0
1DDEC0
16DF40
175740
0B8B80
0D8D80
ENDCHAR
STARTCHAR X
ENCODING 88
SWIDTH 876 0
DWIDTH 16 0
BBX 16 15 0 0
BITMAP
B436
6C5A
5AB4
2DD8
1B68
15B0
0B60
05A0
06D0
0B70
16E8
1BD8
2D6C
365A
6C3F
ENDCHAR
STARTCHAR Y
ENCODING 89
SWIDTH 789 0
DWIDTH 14 0
BBX 14 15 0 0
BITMAP
D85C
7874
6CB8
3CE8
3770
1DD0
1EE0
17A0
0DC0
06C0
0780
0780
0780
0780
0780
ENDCHAR
STARTCHAR Z
ENCODING 90
SWIDTH 854 0
DWIDTH 15 0
BBX 14 15 1 0
BITMAP
FFFC
0008
FFF4
FFDC
FDA8
02F4
0D58
17A0
6AC0
BD00
D7FC
E800
B7FC
DFFC
FFFC
ENDCHAR
STARTCHAR bracketleft
ENCODING 91
SWIDTH 320 0
DWIDTH 6 0
BBX 4 16 1 -1
BITMAP
F0
F0
F0
E0
E0
E0
E0
E0
E0
E0
E0
E0
E0
F0
F0
F0
ENDCHAR
STARTCHAR backslash
ENCODING 92
SWIDTH 448 0
DWIDTH 8 0
BBX 8 17 0 -2
BITMAP
B0
B0
70
68
58
58
38
34
2C
2C
1C
1A
16
16
0E
0D
0B
ENDCHAR
STARTCHAR bracketright
ENCODING 93
SWIDTH 319 0
DWIDTH 6 0
BBX 4 16 1 -1
BITMAP
F0
F0
B0
70
70
70
70
70
70
70
70
70
70
B0
F0
F0
ENDCHAR
STARTCHAR asciicircum
ENCODING 94
SWIDTH 475 0
DWIDTH 9 0
BBX 7 7 1 6
BITMAP
28
28
58
74
AC
CC
C6
ENDCHAR
STARTCHAR underscore
ENCODING 95
SWIDTH 511 0
DWIDTH 9 0
BBX 7 3 1 -3
BITMAP
FE
FE
FE
ENDCHAR
STARTCHAR grave
ENCODING 96
SWIDTH 472 0
DWIDTH 9 0
BBX 7 4 1 13
BITMAP
40
F0
3E
0C
ENDCHAR
STARTCHAR a
ENCODING 97
SWIDTH 832 0
DWIDTH 15 0
BBX 14 13 0 0
BITMAP
0FC0
17F0
2BA8
5C54
77AC
B85C
B83C
B83C
743C
6BBC
37BC
1FBC
0FDC
ENDCHAR
STARTCHAR b
ENCODING 98
SWIDTH 720 0
DWIDTH 13 0
BBX 11 13 1 0
BITMAP
FF80
BF40
C0A0
FFE0
E0E0
FF60
FFA0
FF60
E0E0
E0E0
FF60
FFE0
FF80
ENDCHAR
STARTCHAR c
ENCODING 99
SWIDTH 736 0
DWIDTH 13 0
BBX 13 14 0 -1
BITMAP
0FE0
17D0
2BA8
5F70
74C0
B800
B800
B800
7440
6BA0
37D0
2EF8
1920
07C0
ENDCHAR
STARTCHAR d
ENCODING 100
SWIDTH 833 0
DWIDTH 15 0
BBX 13 13 1 0
BITMAP
FF80
BF60
C0D0
FFA8
EF58
F0B8
F078
F078
FFD8
E0E8
DF50
FFA0
FFC0
ENDCHAR
STARTCHAR e
ENCODING 101
SWIDTH 666 0
DWIDTH 12 0
BBX 10 13 1 0
BITMAP
EFC0
FFC0
F000
FFC0
F000
EFC0
EFC0
FFC0
F000
F000
FFC0
EFC0
EFC0
ENDCHAR
STARTCHAR f
ENCODING 102
SWIDTH 625 0
DWIDTH 11 0
BBX 10 13 1 0
BITMAP
EFC0
FFC0
F000
FFC0
F000
EF80
F000
FF80
EF80
F000
F000
F000
F000
ENDCHAR
STARTCHAR g
ENCODING 103
SWIDTH 827 0
DWIDTH 15 0
BBX 14 14 0 -1
BITMAP
0FE0
17D0
2BA8
5F70
74C0
B800
B800
B83C
747C
6BBC
37DC
2EDC
193C
07C0
ENDCHAR
STARTCHAR h
ENCODING 104
SWIDTH 830 0
DWIDTH 15 0
BBX 13 13 1 0
BITMAP
F0B8
F0B8
F0B8
F0B8
F0B8
FFB8
EFB8
EFB8
F0B8
F0B8
F0B8
F0B8
F0B8
ENDCHAR
STARTCHAR i
ENCODING 105
SWIDTH 337 0
DWIDTH 6 0
BBX 4 13 1 0
BITMAP
F0
F0
F0
F0
F0
F0
F0
F0
F0
F0
F0
F0
F0
ENDCHAR
STARTCHAR j
ENCODING 106
SWIDTH 393 0
DWIDTH 7 0
BBX 6 15 0 -2
BITMAP
3C
3C
3C
3C
3C
3C
3C
3C
3C
3C
DC
74
A8
D0
E0
ENDCHAR
STARTCHAR k
ENCODING 107
SWIDTH 801 0
DWIDTH 14 0
BBX 13 13 1 0
BITMAP
F0D8
F168
F1B0
F2D0
F360
F5C0
F740
F6C0
F5A0
F360
F1D0
F170
F0D8
ENDCHAR
STARTCHAR l
ENCODING 108
SWIDTH 583 0
DWIDTH 11 0
BBX 9 13 1 0
BITMAP
F000
F000
F000
F000
F000
F000
F000
F000
F000
F000
FF80
EF80
EF80
ENDCHAR
STARTCHAR m
ENCODING 109
SWIDTH 1167 0
DWIDTH 21 0
BBX 19 13 1 0
BITMAP
3FBF80
5F5F40
AFEEA0
D6DD60
F9B3E0
F1B1E0
F1B1E0
F1B1E0
F1B1E0
F1B1E0
F1B1E0
F1B1E0
F1B1E0
ENDCHAR
STARTCHAR n
ENCODING 110
SWIDTH 787 0
DWIDTH 14 0
BBX 12 13 1 0
BITMAP
D870
B470
EC70
BA70
ED70
DB70
F6F0
EDB0
EB70
E6F0
E370
E2D0
E1B0
ENDCHAR
STARTCHAR o
ENCODING 111
SWIDTH 833 0
DWIDTH 15 0
BBX 14 14 0 -1
BITMAP
0FE0
17D0
2BA8
5F74
74EC
B83C
B83C
B83C
745C
6BAC
37D8
2EF0
1960
0780
ENDCHAR
STARTCHAR p
ENCODING 112
SWIDTH 781 0
DWIDTH 14 0
BBX 12 13 1 0
BITMAP
FF80
BF60
C0D0
FFB0
EF70
F0F0
F770
F7F0
F7A0
F7C0
F000
F000
F000
ENDCHAR
STARTCHAR q
ENCODING 113
SWIDTH 788 0
DWIDTH 14 0
BBX 13 15 0 -2
BITMAP
0FF8
17E8
2818
5FF8
77F8
B878
B878
B7F8
6C78
5BF8
37F8
0FF8
0078
0078
0078
ENDCHAR
STARTCHAR r
ENCODING 114
SWIDTH 831 0
DWIDTH 15 0
BBX 13 13 1 0
BITMAP
FFC0
BFB0
C068
FFD8
EFB8
F078
F7B8
F7E8
F7D0
F7E0
F2E0
F1D0
F1F0
ENDCHAR
STARTCHAR s
ENCODING 115
SWIDTH 683 0
DWIDTH 12 0
BBX 12 13 0 0
BITMAP
1FC0
2FB0
7760
B8C0
B000
6FC0
5FA0
3F50
00B0
20B0
7F50
DFA0
3FC0
ENDCHAR
STARTCHAR t
ENCODING 116
SWIDTH 588 0
DWIDTH 11 0
BBX 9 13 1 0
BITMAP
FF80
FF80
0000
FF80
3A00
3A00
3A00
3A00
3A00
3A00
3A00
3A00
3A00
ENDCHAR
STARTCHAR u
ENCODING 117
SWIDTH 795 0
DWIDTH 14 0
BBX 13 14 1 -1
BITMAP
F0E8
F0E8
F0E8
F0E8
F0E8
F0E8
F0E8
F0E8
E8E8
D7B0
AF50
59A0
36C0
0F00
ENDCHAR
STARTCHAR v
ENCODING 118
SWIDTH 855 0
DWIDTH 15 0
BBX 15 13 0 0
BITMAP
B836
743A
6C5C
5C6C
3674
2ED8
1DE8
1B70
17B0
0DD0
0AE0
07A0
05C0
ENDCHAR
STARTCHAR w
ENCODING 119
SWIDTH 1129 0
DWIDTH 20 0
BBX 19 13 1 0
BITMAP
F1D3A0
F1D3A0
F1D3A0
F1D3A0
F1D3A0
F1D3A0
F1D3A0
F1D3A0
F1D3A0
DEEDA0
AFBFC0
5F7E80
3FFF00
ENDCHAR
STARTCHAR x
ENCODING 120
SWIDTH 790 0
DWIDTH 14 0
BBX 14 13 0 0
BITMAP
B4B4
5AD8
37A8
2ED0
1B60
0DA0
0B40
0DA0
16A0
2BD0
35B0
5B68
FCB4
ENDCHAR
STARTCHAR y
ENCODING 121
SWIDTH 733 0
DWIDTH 13 0
BBX 13 13 0 0
BITMAP
D8B8
74E8
6D70
3BD0
2EE0
1BA0
1DC0
0F40
0B80
0B80
0B80
0B80
0B80
ENDCHAR
STARTCHAR z
ENCODING 122
SWIDTH 714 0
DWIDTH 13 0
BBX 12 13 0 0
BITMAP
7F50
7DB0
02D0
7F60
06A0
0B40
0D80
1680
2B00
3600
5BF0
6DF0
DFF0
ENDCHAR
STARTCHAR braceleft
ENCODING 123
SWIDTH 396 0
DWIDTH 7 0
BBX 7 19 0 -4
BITMAP
1E
2E
36
58
58
58
58
58
E8
D0
A8
58
58
58
58
5E
38
16
0E
ENDCHAR
STARTCHAR bar
ENCODING 124
SWIDTH 266 0
DWIDTH 5 0
BBX 3 17 1 -2
BITMAP
E0
E0
E0
E0
E0
E0
E0
E0
E0
E0
E0
E0
E0
E0
E0
E0
E0
ENDCHAR
STARTCHAR braceright
ENCODING 125
SWIDTH 396 0
DWIDTH 7 0
BBX 7 19 0 -4
BITMAP
F0
E8
D8
34
34
34
34
2E
1E
18
32
34
34
34
34
F4
18
F8
E0
ENDCHAR
STARTCHAR asciitilde
ENCODING 126
SWIDTH 665 0
DWIDTH 12 0
BBX 10 3 1 10
BITMAP
FEC0
FF40
DF80
ENDCHAR
STARTCHAR uni00A0
ENCODING 160
SWIDTH 108 0
DWIDTH 2 0
BBX 1 1 0 0
BITMAP
00
ENDCHAR
STARTCHAR exclamdown
ENCODING 161
SWIDTH 336 0
DWIDTH 6 0
BBX 4 16 1 -1
BITMAP
F0
F0
F0
F0
F0
F0
F0
F0
F0
F0
F0
00
F0
00
F0
F0
ENDCHAR
STARTCHAR cent
ENCODING 162
SWIDTH 708 0
DWIDTH 13 0
BBX 11 18 1 -2
BITMAP
0A00
0A00
1F80
2F40
56A0
B9C0
EF80
F000
B000
F000
EF80
B9C0
56E0
2F40
1F80
0A00
0A00
0A00
ENDCHAR
STARTCHAR sterling
ENCODING 163
SWIDTH 689 0
DWIDTH 12 0
BBX 11 15 1 0
BITMAP
3F80
5FE0
AF40
D680
F900
F000
F780
F000
F780
F780
F000
F000
FF80
EF80
EF80
ENDCHAR
STARTCHAR currency
ENCODING 164
SWIDTH 715 0
DWIDTH 13 0
BBX 12 14 0 0
BITMAP
2040
5050
EEB0
59D0
2FE0
3060
3060
3060
3060
30A0
3F60
5FD0
A8B0
7060
ENDCHAR
STARTCHAR yen
ENCODING 165
SWIDTH 796 0
DWIDTH 14 0
BBX 14 15 0 0
BITMAP
D85C
7474
6CB8
3CE8
3770
1DD0
1AE0
0F60
0BC0
06C0
3F70
0740
3F70
0740
0740
ENDCHAR
STARTCHAR brokenbar
ENCODING 166
SWIDTH 263 0
DWIDTH 5 0
BBX 3 17 1 -2
BITMAP
E0
E0
E0
E0
E0
E0
E0
00
00
00
E0
E0
E0
E0
E0
E0
E0
ENDCHAR
STARTCHAR section
ENCODING 167
SWIDTH 108 0
DWIDTH 2 0
BBX 1 1 0 0
BITMAP
00
ENDCHAR
STARTCHAR dieresis
ENCODING 168
SWIDTH 556 0
DWIDTH 10 0
BBX 8 2 1 13
BITMAP
E7
E7
ENDCHAR
STARTCHAR copyright
ENCODING 169
SWIDTH 869 0
DWIDTH 16 0
BBX 14 14 1 1
BITMAP
0FC0
3020
4710
48C8
9024
A004
A004
A004
A004
9044
C868
4798
2030
1FC0
ENDCHAR
STARTCHAR ordfeminine
ENCODING 170
SWIDTH 833 0
DWIDTH 15 0
BBX 13 13 1 0
BITMAP
1FC0
2FA0
5750
A8A8
DFD8
F0B8
B078
F078
E878
D778
7F78
2F78
1FF8
ENDCHAR
STARTCHAR guillemotleft
ENCODING 171
SWIDTH 911 0
DWIDTH 16 0
BBX 15 9 1 2
BITMAP
0606
3A3A
DCDC
6666
B8B8
F6F6
6C6C
1A1A
0606
ENDCHAR
STARTCHAR logicalnot
ENCODING 172
SWIDTH 718 0
DWIDTH 13 0
BBX 11 6 1 4
BITMAP
FFE0
00E0
FFE0
FFE0
00E0
00E0
ENDCHAR
STARTCHAR registered
ENCODING 174
SWIDTH 869 0
DWIDTH 16 0
BBX 14 14 1 1
BITMAP
0FC0
3020
4010
4F88
8844
8844
8844
8F84
8884
8884
C8C8
4018
2030
1FC0
ENDCHAR
STARTCHAR degree
ENCODING 176
SWIDTH 330 0
DWIDTH 6 0
BBX 4 5 1 14
BITMAP
60
F0
90
F0
F0
ENDCHAR
STARTCHAR plusminus
ENCODING 177
SWIDTH 598 0
DWIDTH 11 0
BBX 9 10 1 1
BITMAP
3600
3600
F780
F780
F780
3600
3600
3600
FF80
FF80
ENDCHAR
STARTCHAR uni00B2
ENCODING 178
SWIDTH 435 0
DWIDTH 8 0
BBX 6 12 1 3
BITMAP
78
84
FC
0C
14
18
30
50
A0
C0
FC
FC
ENDCHAR
STARTCHAR uni00B3
ENCODING 179
SWIDTH 515 0
DWIDTH 9 0
BBX 9 13 0 2
BITMAP
7800
8600
7D00
7B00
0700
3F00
3D00
0280
3D80
7D80
4680
3B00
7C00
ENDCHAR
STARTCHAR acute
ENCODING 180
SWIDTH 472 0
DWIDTH 9 0
BBX 7 4 1 13
BITMAP
0C
36
D8
60
ENDCHAR
STARTCHAR uni00B5
ENCODING 181
SWIDTH 802 0
DWIDTH 14 0
BBX 13 15 1 -2
BITMAP
F0D8
F0D8
F0D8
F0D8
F0D8
F0D8
F0D8
F0D8
F0E8
F770
F7D0
F1A0
F6C0
F700
F000
ENDCHAR
STARTCHAR paragraph
ENCODING 182
SWIDTH 676 0
DWIDTH 12 0
BBX 10 15 1 -2
BITMAP
1FC0
6F40
B0C0
DFC0
EFC0
B3C0
EFC0
BFC0
5FC0
3FC0
03C0
03C0
03C0
03C0
03C0
ENDCHAR
STARTCHAR periodcentered
ENCODING 183
SWIDTH 260 0
DWIDTH 5 0
BBX 3 3 1 7
BITMAP
E0
E0
E0
ENDCHAR
STARTCHAR cedilla
ENCODING 184
SWIDTH 321 0
DWIDTH 6 0
BBX 4 6 1 -7
BITMAP
70
90
E0
C0
B0
70
ENDCHAR
STARTCHAR uni00B9
ENCODING 185
SWIDTH 359 0
DWIDTH 6 0
BBX 5 11 1 4
BITMAP
F8
00
F8
58
58
58
58
58
58
58
58
ENDCHAR
STARTCHAR ordmasculine
ENCODING 186
SWIDTH 835 0
DWIDTH 15 0
BBX 14 14 1 -1
BITMAP
1FC0
2FA0
5750
BBE8
DCB8
F074
B074
F074
E8B8
D758
6FB0
7DD0
1260
0F80
ENDCHAR
STARTCHAR guillemotright
ENCODING 187
SWIDTH 912 0
DWIDTH 16 0
BBX 15 9 1 2
BITMAP
C0C0
B0B0
6E6E
DCDC
3A3A
D6D6
6CEC
F170
8080
ENDCHAR
STARTCHAR onequarter
ENCODING 188
SWIDTH 1236 0
DWIDTH 22 0
BBX 22 17 0 -2
BITMAP
FC3400
003800
FC5800
2C58B0
2C68D0
2C7160
2CB1A0
2CB2C0
2CD358
2CE598
2D67FC
0167FC
01A7FC
01C018
02C018
02C000
034000
ENDCHAR
STARTCHAR onehalf
ENCODING 189
SWIDTH 1154 0
DWIDTH 21 0
BBX 20 17 0 -2
BITMAP
FC3400
003800
FC5800
2C58C0
2C6B30
2C73F0
2CB030
2CB050
2CD060
2CE0C0
2D6140
016280
01A300
01C7F0
02C7F0
02C000
034000
ENDCHAR
STARTCHAR threequarters
ENCODING 190
SWIDTH 1345 0
DWIDTH 24 0
BBX 24 17 0 -2
BITMAP
780B00
860B00
7D0D00
7B0E2C
071634
3F1658
3D1A68
029CB0
3DACD6
7DAD66
4735FF
3B39FF
7C59FF
006806
006806
007000
00B000
ENDCHAR
STARTCHAR questiondown
ENCODING 191
SWIDTH 693 0
DWIDTH 12 0
BBX 12 15 0 0
BITMAP
3F80
DF40
6FE0
36B0
1970
0170
3AB0
3B60
3BA0
3BC0
3800
0000
3800
3800
3800
ENDCHAR
STARTCHAR Agrave
ENCODING 192
SWIDTH 936 0
DWIDTH 17 0
BBX 17 20 0 0
BITMAP
080000
1F0000
06C000
018000
000000
036000
02E000
05D000
07B000
0B6800
0DD800
16B800
1B7400
1D6C00
2E5A00
37F600
3BEE00
6FFD00
741B00
B81680
ENDCHAR
STARTCHAR Aacute
ENCODING 193
SWIDTH 936 0
DWIDTH 17 0
BBX 17 20 0 0
BITMAP
001800
006C00
01B000
00C000
000000
036000
02E000
05D000
07B000
0B6800
0DD800
16B800
1B7400
1D6C00
2E5A00
37F600
3BEE00
6FFD00
741B00
B81680
ENDCHAR
STARTCHAR Acircumflex
ENCODING 194
SWIDTH 936 0
DWIDTH 17 0
BBX 17 21 0 0
BITMAP
014000
01C000
02A000
036000
000000
000000
036000
02E000
05D000
07B000
0B6800
0DD800
16B800
1B7400
1D6C00
2E5A00
37F600
3BEE00
6FFD00
741B00
B81680
ENDCHAR
STARTCHAR Atilde
ENCODING 195
SWIDTH 936 0
DWIDTH 17 0
BBX 17 19 0 0
BITMAP
0FEC00
17F400
1BF800
000000
036000
02E000
05D000
07B000
0B6800
0DD800
16B800
1B7400
1D6C00
2E5A00
37F600
3BEE00
6FFD00
741B00
B81680
ENDCHAR
STARTCHAR Adieresis
ENCODING 196
SWIDTH 936 0
DWIDTH 17 0
BBX 17 18 0 0
BITMAP
0E5800
0E5800
000000
036000
02E000
05D000
07B000
0B6800
0DD800
16B800
1B7400
1D6C00
2E5A00
37F600
3BEE00
6FFD00
741B00
B81680
ENDCHAR
STARTCHAR Aring
ENCODING 197
SWIDTH 936 0
DWIDTH 17 0
BBX 17 20 0 0
BITMAP
01C000
02A000
036000
036000
01C000
036000
02E000
05D000
07B000
0B6800
0DD800
16B800
1B7400
1D6C00
2E5A00
37F600
3BEE00
6FFD00
741B00
B81680
ENDCHAR
STARTCHAR AE
ENCODING 198
SWIDTH 1198 0
DWIDTH 22 0
BBX 21 15 0 0
BITMAP
037FF8
02E000
05DFF8
07BFF8
0B6800
0DD800
16B7F0
1B77F0
1D6FF0
2E5C00
37F600
3BEE00
6FFDF8
741BF8
B816F8
ENDCHAR
STARTCHAR Ccedilla
ENCODING 199
SWIDTH 852 0
DWIDTH 15 0
BBX 15 21 0 -6
BITMAP
07F0
1BE8
2DDC
36B6
6B68
7410
B800
B800
B800
7400
6C38
57D4
2BEA
1774
0C98
03E0
0240
0580
0600
0580
0380
ENDCHAR
STARTCHAR Egrave
ENCODING 200
SWIDTH 706 0
DWIDTH 13 0
BBX 11 20 1 0
BITMAP
4000
F000
3E00
0C00
0000
EFE0
F000
FFE0
EFE0
F000
F000
EF00
EF00
FF00
F000
F000
F000
FFE0
EFE0
EFE0
ENDCHAR
STARTCHAR Eacute
ENCODING 201
SWIDTH 706 0
DWIDTH 13 0
BBX 11 20 1 0
BITMAP
00C0
0360
0D80
0600
0000
EFE0
F000
FFE0
EFE0
F000
F000
EF00
EF00
FF00
F000
F000
F000
FFE0
EFE0
EFE0
ENDCHAR
STARTCHAR Ecircumflex
ENCODING 202
SWIDTH 706 0
DWIDTH 13 0
BBX 11 21 1 0
BITMAP
0A00
0E00
1500
1B00
0000
0000
EFE0
F000
FFE0
EFE0
F000
F000
EF00
EF00
FF00
F000
F000
F000
FFE0
EFE0
EFE0
ENDCHAR
STARTCHAR Edieresis
ENCODING 203
SWIDTH 706 0
DWIDTH 13 0
BBX 11 18 1 0
BITMAP
72C0
72C0
0000
EFE0
F000
FFE0
EFE0
F000
F000
EF00
EF00
FF00
F000
F000
F000
FFE0
EFE0
EFE0
ENDCHAR
STARTCHAR Igrave
ENCODING 204
SWIDTH 338 0
DWIDTH 6 0
BBX 8 20 -3 0
BITMAP
60
D8
37
0E
00
0F
0F
0F
0F
0F
0F
0F
0F
0F
0F
0F
0F
0F
0F
0F
ENDCHAR
STARTCHAR Iacute
ENCODING 205
SWIDTH 338 0
DWIDTH 6 0
BBX 8 20 1 0
BITMAP
06
1B
6C
30
00
F0
F0
F0
F0
F0
F0
F0
F0
F0
F0
F0
F0
F0
F0
F0
ENDCHAR
STARTCHAR Icircumflex
ENCODING 206
SWIDTH 338 0
DWIDTH 6 0
BBX 6 21 0 0
BITMAP
30
68
58
74
80
00
78
78
78
78
78
78
78
78
78
78
78
78
78
78
78
ENDCHAR
STARTCHAR Idieresis
ENCODING 207
SWIDTH 338 0
DWIDTH 6 0
BBX 8 18 -1 0
BITMAP
E7
E7
00
3C
3C
3C
3C
3C
3C
3C
3C
3C
3C
3C
3C
3C
3C
3C
ENDCHAR
STARTCHAR Eth
ENCODING 208
SWIDTH 905 0
DWIDTH 16 0
BBX 16 15 0 0
BITMAP
7FE0
4018
7FF4
6FEA
77D6
742D
FE1D
FE1B
FE1B
001D
77F6
703A
6FD4
7FE8
7FF0
ENDCHAR
STARTCHAR Ntilde
ENCODING 209
SWIDTH 877 0
DWIDTH 16 0
BBX 14 19 1 0
BITMAP
3FB0
5FD0
57E0
0000
D85C
B45C
EC5C
B65C
ED5C
DB5C
F6DC
EBDC
F6DC
F5AC
F36C
F2DC
F16C
F0DC
F0F4
ENDCHAR
STARTCHAR Ograve
ENCODING 210
SWIDTH 933 0
DWIDTH 17 0
BBX 16 21 0 -1
BITMAP
0800
1E00
07C0
0180
0000
07F0
1BE8
2DDC
36B6
6B6D
741B
B817
B80F
B80F
7417
6C2B
57D6
2BEA
1774
0C98
03E0
ENDCHAR
STARTCHAR Oacute
ENCODING 211
SWIDTH 933 0
DWIDTH 17 0
BBX 16 21 0 -1
BITMAP
0018
006C
01B0
00C0
0000
07F0
1BE8
2DDC
36B6
6B6D
741B
B817
B80F
B80F
7417
6C2B
57D6
2BEA
1774
0C98
03E0
ENDCHAR
STARTCHAR Ocircumflex
ENCODING 212
SWIDTH 933 0
DWIDTH 17 0
BBX 16 22 0 -1
BITMAP
0140
01C0
02A0
0360
0000
0000
07F0
1BE8
2DDC
36B6
6B6D
741B
B817
B80F
B80F
7417
6C2B
57D6
2BEA
1774
0C98
03E0
ENDCHAR
STARTCHAR Otilde
ENCODING 213
SWIDTH 933 0
DWIDTH 17 0
BBX 16 20 0 -1
BITMAP
0FEC
17F4
1BF8
0000
07F0
1BE8
2DDC
36B6
6B6D
741B
B817
B80F
B80F
7417
6C2B
57D6
2BEA
1774
0C98
03E0
ENDCHAR
STARTCHAR Odieresis
ENCODING 214
SWIDTH 933 0
DWIDTH 17 0
BBX 16 19 0 -1
BITMAP
0E58
0E58
0000
07F0
1BE8
2DDC
36B6
6B6D
741B
B817
B80F
B80F
7417
6C2B
57D6
2BEA
1774
0C98
03E0
ENDCHAR
STARTCHAR multiply
ENCODING 215
SWIDTH 790 0
DWIDTH 14 0
BBX 14 13 0 0
BITMAP
B4B4
5AD8
37A8
2ED0
1B60
0DA0
0B40
0DA0
16A0
2BD0
35B0
5B68
FCB4
ENDCHAR
STARTCHAR Oslash
ENCODING 216
SWIDTH 938 0
DWIDTH 17 0
BBX 16 20 0 -3
BITMAP
0018
001A
07F4
1BE8
2DDC
36B6
6B6D
741B
B817
B80F
B80F
7417
6C2B
57D6
2BEA
1774
1C98
2FE0
3400
0800
ENDCHAR
STARTCHAR Ugrave
ENCODING 217
SWIDTH 905 0
DWIDTH 16 0
BBX 15 21 1 -1
BITMAP
3000
6C00
1B80
0700
0000
F03A
F03A
F03A
F03A
F03A
F03A
F03A
F03A
F03A
F03A
D85C
B7AC
5FD8
2CF0
1B60
0780
ENDCHAR
STARTCHAR Uacute
ENCODING 218
SWIDTH 905 0
DWIDTH 16 0
BBX 15 21 1 -1
BITMAP
0030
00D8
0360
0180
0000
F03A
F03A
F03A
F03A
F03A
F03A
F03A
F03A
F03A
F03A
D85C
B7AC
5FD8
2CF0
1B60
0780
ENDCHAR
STARTCHAR Ucircumflex
ENCODING 219
SWIDTH 905 0
DWIDTH 16 0
BBX 15 22 1 -1
BITMAP
0300
0680
0580
0740
0800
0000
F03A
F03A
F03A
F03A
F03A
F03A
F03A
F03A
F03A
F03A
D85C
B7AC
5FD8
2CF0
1B60
0780
ENDCHAR
STARTCHAR Udieresis
ENCODING 220
SWIDTH 905 0
DWIDTH 16 0
BBX 15 19 1 -1
BITMAP
1CD0
1CD0
0000
F03A
F03A
F03A
F03A
F03A
F03A
F03A
F03A
F03A
F03A
D85C
B7AC
5FD8
2CF0
1B60
0780
ENDCHAR
STARTCHAR Yacute
ENCODING 221
SWIDTH 789 0
DWIDTH 14 0
BBX 14 20 0 0
BITMAP
0030
00D8
0360
0180
0000
D85C
7874
6CB8
3CE8
3770
1DD0
1EE0
17A0
0DC0
06C0
0780
0780
0780
0780
0780
ENDCHAR
STARTCHAR Thorn
ENCODING 222
SWIDTH 798 0
DWIDTH 14 0
BBX 13 16 1 -1
BITMAP
F000
EF00
F0C0
FFA0
EFD0
EF68
F0D8
F0D8
F0D8
F768
F1B0
F6D0
F760
F780
F000
F000
ENDCHAR
STARTCHAR germandbls
ENCODING 223
SWIDTH 826 0
DWIDTH 15 0
BBX 13 16 1 -1
BITMAP
3FE0
5FD0
AFB0
D758
F8B8
F7B8
F068
F7E8
F7B8
F078
F7B8
F058
F7A8
F7F0
F7C0
F000
ENDCHAR
STARTCHAR agrave
ENCODING 224
SWIDTH 832 0
DWIDTH 15 0
BBX 14 18 0 0
BITMAP
3000
6C00
1F80
0300
0000
0FC0
17F0
2BA8
5C54
77AC
B85C
B83C
B83C
743C
6BBC
37BC
1FBC
0FDC
ENDCHAR
STARTCHAR aacute
ENCODING 225
SWIDTH 832 0
DWIDTH 15 0
BBX 14 18 0 0
BITMAP
0030
00D8
0360
0180
0000
0FC0
17F0
2BA8
5C54
77AC
B85C
B83C
B83C
743C
6BBC
37BC
1FBC
0FDC
ENDCHAR
STARTCHAR acircumflex
ENCODING 226
SWIDTH 832 0
DWIDTH 15 0
BBX 14 19 0 0
BITMAP
0280
0280
0580
0740
0080
0000
0FC0
17F0
2BA8
5C54
77AC
B85C
B83C
B83C
743C
6BBC
37BC
1FBC
0FDC
ENDCHAR
STARTCHAR atilde
ENCODING 227
SWIDTH 832 0
DWIDTH 15 0
BBX 14 17 0 0
BITMAP
1FA8
2FD0
37F0
0000
0FC0
17F0
2BA8
5C54
77AC
B85C
B83C
B83C
743C
6BBC
37BC
1FBC
0FDC
ENDCHAR
STARTCHAR adieresis
ENCODING 228
SWIDTH 832 0
DWIDTH 15 0
BBX 14 16 0 0
BITMAP
1CD0
1CD0
0000
0FC0
17F0
2BA8
5C54
77AC
B85C
B83C
B83C
743C
6BBC
37BC
1FBC
0FDC
ENDCHAR
STARTCHAR aring
ENCODING 229
SWIDTH 832 0
DWIDTH 15 0
BBX 14 19 0 0
BITMAP
0380
0540
06C0
06C0
0380
0000
0FC0
17F0
2BA8
5C54
77AC
B85C
B83C
B83C
743C
6BBC
37BC
1FBC
0FDC
ENDCHAR
STARTCHAR ae
ENCODING 230
SWIDTH 1166 0
DWIDTH 21 0
BBX 20 13 0 0
BITMAP
0FDBF0
17FFF0
2BAC00
5C57F0
77AC00
B85FF0
B83BF0
B83FF0
743C00
6BBC00
37BFF0
1FBBF0
0FDBF0
ENDCHAR
STARTCHAR ccedilla
ENCODING 231
SWIDTH 736 0
DWIDTH 13 0
BBX 13 19 0 -6
BITMAP
0FE0
17D0
2BA8
5F70
74C0
B800
B800
B800
7440
6BA0
37D0
2EF8
1920
07C0
0480
0B00
0C00
0B00
0700
ENDCHAR
STARTCHAR egrave
ENCODING 232
SWIDTH 666 0
DWIDTH 12 0
BBX 11 18 0 0
BITMAP
6000
D800
3700
0E00
0000
77E0
7FE0
7800
7FE0
7800
77E0
77E0
7FE0
7800
7800
7FE0
77E0
77E0
ENDCHAR
STARTCHAR eacute
ENCODING 233
SWIDTH 666 0
DWIDTH 12 0
BBX 11 18 1 0
BITMAP
00C0
0360
0D80
0600
0000
EFC0
FFC0
F000
FFC0
F000
EFC0
EFC0
FFC0
F000
F000
FFC0
EFC0
EFC0
ENDCHAR
STARTCHAR ecircumflex
ENCODING 234
SWIDTH 666 0
DWIDTH 12 0
BBX 10 19 1 0
BITMAP
0C00
1A00
1600
1D00
2000
0000
EFC0
FFC0
F000
FFC0
F000
EFC0
EFC0
FFC0
F000
F000
FFC0
EFC0
EFC0
ENDCHAR
STARTCHAR edieresis
ENCODING 235
SWIDTH 666 0
DWIDTH 12 0
BBX 10 16 1 0
BITMAP
7340
7340
0000
EFC0
FFC0
F000
FFC0
F000
EFC0
EFC0
FFC0
F000
F000
FFC0
EFC0
EFC0
ENDCHAR
STARTCHAR igrave
ENCODING 236
SWIDTH 337 0
DWIDTH 6 0
BBX 8 18 -3 0
BITMAP
60
D8
37
0E
00
0F
0F
0F
0F
0F
0F
0F
0F
0F
0F
0F
0F
0F
ENDCHAR
STARTCHAR iacute
ENCODING 237
SWIDTH 337 0
DWIDTH 6 0
BBX 8 18 1 0
BITMAP
06
1B
6C
30
00
F0
F0
F0
F0
F0
F0
F0
F0
F0
F0
F0
F0
F0
ENDCHAR
STARTCHAR icircumflex
ENCODING 238
SWIDTH 337 0
DWIDTH 6 0
BBX 6 19 0 0
BITMAP
30
68
58
74
80
00
78
78
78
78
78
78
78
78
78
78
78
78
78
ENDCHAR
STARTCHAR idieresis
ENCODING 239
SWIDTH 337 0
DWIDTH 6 0
BBX 8 16 -1 0
BITMAP
E7
E7
00
3C
3C
3C
3C
3C
3C
3C
3C
3C
3C
3C
3C
3C
ENDCHAR
STARTCHAR eth
ENCODING 240
SWIDTH 783 0
DWIDTH 14 0
BBX 13 16 0 -1
BITMAP
1FC0
6FB0
37E8
1B58
0CB8
0078
1F78
2F78
7F78
B778
B878
B7D8
6FA8
5DD0
3260
0F80
ENDCHAR
STARTCHAR ntilde
ENCODING 241
SWIDTH 787 0
DWIDTH 14 0
BBX 12 17 1 0
BITMAP
7F50
7FA0
6FC0
0000
D870
B470
EC70
BA70
ED70
DB70
F6F0
EDB0
EB70
E6F0
E370
E2D0
E1B0
ENDCHAR
STARTCHAR ograve
ENCODING 242
SWIDTH 833 0
DWIDTH 15 0
BBX 14 19 0 -1
BITMAP
1000
3E00
0D80
0300
0000
0FE0
17D0
2BA8
5F74
74EC
B83C
B83C
B83C
745C
6BAC
37D8
2EF0
1960
0780
ENDCHAR
STARTCHAR oacute
ENCODING 243
SWIDTH 833 0
DWIDTH 15 0
BBX 14 19 0 -1
BITMAP
0030
00D8
0360
0180
0000
0FE0
17D0
2BA8
5F74
74EC
B83C
B83C
B83C
745C
6BAC
37D8
2EF0
1960
0780
ENDCHAR
STARTCHAR ocircumflex
ENCODING 244
SWIDTH 833 0
DWIDTH 15 0
BBX 14 20 0 -1
BITMAP
0280
0380
0540
06C0
0000
0000
0FE0
17D0
2BA8
5F74
74EC
B83C
B83C
B83C
745C
6BAC
37D8
2EF0
1960
0780
ENDCHAR
STARTCHAR otilde
ENCODING 245
SWIDTH 833 0
DWIDTH 15 0
BBX 14 18 0 -1
BITMAP
1FD8
2FE8
37F0
0000
0FE0
17D0
2BA8
5F74
74EC
B83C
B83C
B83C
745C
6BAC
37D8
2EF0
1960
0780
ENDCHAR
STARTCHAR odieresis
ENCODING 246
SWIDTH 833 0
DWIDTH 15 0
BBX 14 17 0 -1
BITMAP
1CB0
1CB0
0000
0FE0
17D0
2BA8
5F74
74EC
B83C
B83C
B83C
745C
6BAC
37D8
2EF0
1960
0780
ENDCHAR
STARTCHAR divide
ENCODING 247
SWIDTH 260 0
DWIDTH 5 0
BBX 6 10 -1 1
BITMAP
38
38
38
00
FC
FC
00
38
38
38
ENDCHAR
STARTCHAR oslash
ENCODING 248
SWIDTH 832 0
DWIDTH 15 0
BBX 14 17 0 -2
BITMAP
0020
0030
0FE8
17D0
2BA8
5F74
74EC
B83C
B83C
B83C
745C
6BB4
37D8
2EF0
3960
3F80
0800
ENDCHAR
STARTCHAR ugrave
ENCODING 249
SWIDTH 795 0
DWIDTH 14 0
BBX 13 19 1 -1
BITMAP
6000
D800
3700
0E00
0000
F0E8
F0E8
F0E8
F0E8
F0E8
F0E8
F0E8
F0E8
E8E8
D7B0
AF50
59A0
36C0
0F00
ENDCHAR
STARTCHAR uacute
ENCODING 250
SWIDTH 795 0
DWIDTH 14 0
BBX 13 19 1 -1
BITMAP
0060
01B0
06C0
0300
0000
F0E8
F0E8
F0E8
F0E8
F0E8
F0E8
F0E8
F0E8
E8E8
D7B0
AF50
59A0
36C0
0F00
ENDCHAR
STARTCHAR ucircumflex
ENCODING 251
SWIDTH 795 0
DWIDTH 14 0
BBX 13 20 1 -1
BITMAP
0600
0D00
0B00
0E80
1100
0000
F0E8
F0E8
F0E8
F0E8
F0E8
F0E8
F0E8
F0E8
E8E8
D7B0
AF50
59A0
36C0
0F00
ENDCHAR
STARTCHAR udieresis
ENCODING 252
SWIDTH 795 0
DWIDTH 14 0
BBX 13 17 1 -1
BITMAP
39A0
39A0
0000
F0E8
F0E8
F0E8
F0E8
F0E8
F0E8
F0E8
F0E8
E8E8
D7B0
AF50
59A0
36C0
0F00
ENDCHAR
STARTCHAR yacute
ENCODING 253
SWIDTH 733 0
DWIDTH 13 0
BBX 13 18 0 0
BITMAP
0020
00F0
07C0
0300
0000
D8B8
74E8
6D70
3BD0
2EE0
1BA0
1DC0
0F40
0B80
0B80
0B80
0B80
0B80
ENDCHAR
STARTCHAR thorn
ENCODING 254
SWIDTH 833 0
DWIDTH 15 0
BBX 13 17 1 -2
BITMAP
F000
F000
F000
F000
F7C0
F7B0
F068
F7D8
F7B8
F078
F7F8
F7A8
F7D0
F7E0
F000
F000
F000
ENDCHAR
STARTCHAR ydieresis
ENCODING 255
SWIDTH 733 0
DWIDTH 13 0
BBX 13 16 0 0
BITMAP
34E0
34E0
0000
D8B8
74E8
6D70
3BD0
2EE0
1BA0
1DC0
0F40
0B80
0B80
0B80
0B80
0B80
ENDCHAR
STARTCHAR Amacron
ENCODING 256
SWIDTH 936 0
DWIDTH 17 0
BBX 17 15 0 0
BITMAP
036000
02E000
05D000
07B000
0B6800
0DD800
16B800
1B7400
1D6C00
2E5A00
37F600
3BEE00
6FFD00
741B00
B81680
ENDCHAR
STARTCHAR amacron
ENCODING 257
SWIDTH 832 0
DWIDTH 15 0
BBX 14 13 0 0
BITMAP
0FC0
17F0
2BA8
5C54
77AC
B85C
B83C
B83C
743C
6BBC
37BC
1FBC
0FDC
ENDCHAR
STARTCHAR Abreve
ENCODING 258
SWIDTH 936 0
DWIDTH 17 0
BBX 17 18 0 0
BITMAP
03E000
01C000
000000
036000
02E000
05D000
07B000
0B6800
0DD800
16B800
1B7400
1D6C00
2E5A00
37F600
3BEE00
6FFD00
741B00
B81680
ENDCHAR
STARTCHAR abreve
ENCODING 259
SWIDTH 832 0
DWIDTH 15 0
BBX 14 16 0 0
BITMAP
07C0
0380
0000
0FC0
17F0
2BA8
5C54
77AC
B85C
B83C
B83C
743C
6BBC
37BC
1FBC
0FDC
ENDCHAR
STARTCHAR Aogonek
ENCODING 260
SWIDTH 937 0
DWIDTH 17 0
BBX 17 20 0 -5
BITMAP
036000
02D000
05B000
077000
0AE800
0DD800
0FB800
176C00
1B5C00
2E3A00
37F600
3BEE00
5FFD00
6C1700
B50E80
0A0000
050000
060000
068000
068000
ENDCHAR
STARTCHAR aogonek
ENCODING 261
SWIDTH 832 0
DWIDTH 15 0
BBX 14 19 0 -6
BITMAP
0FC0
17F0
2BA8
5C54
77AC
B85C
B83C
B83C
743C
6BBC
37BC
1FBC
0CDC
0300
0C00
0E00
0C00
0D00
0D00
ENDCHAR
STARTCHAR Cacute
ENCODING 262
SWIDTH 852 0
DWIDTH 15 0
BBX 15 21 0 -1
BITMAP
0018
006C
01B0
00C0
0000
07F0
1BE8
2DDC
36B6
6B68
7410
B800
B800
B800
7400
6C38
57D4
2BEA
1774
0C98
03E0
ENDCHAR
STARTCHAR cacute
ENCODING 263
SWIDTH 736 0
DWIDTH 13 0
BBX 13 19 0 -1
BITMAP
0030
00D8
0360
0180
0000
0FE0
17D0
2BA8
5F70
74C0
B800
B800
B800
7440
6BA0
37D0
2EF8
1920
07C0
ENDCHAR
STARTCHAR Cdotaccent
ENCODING 266
SWIDTH 852 0
DWIDTH 15 0
BBX 15 21 0 -1
BITMAP
01C0
0000
01C0
01C0
0000
07F0
1BE8
2DDC
36B6
6B68
7410
B800
B800
B800
7400
6C38
57D4
2BEA
1774
0C98
03E0
ENDCHAR
STARTCHAR cdotaccent
ENCODING 267
SWIDTH 736 0
DWIDTH 13 0
BBX 13 19 0 -1
BITMAP
0380
0000
0380
0380
0000
0FE0
17D0
2BA8
5F70
74C0
B800
B800
B800
7440
6BA0
37D0
2EF8
1920
07C0
ENDCHAR
STARTCHAR Ccaron
ENCODING 268
SWIDTH 852 0
DWIDTH 15 0
BBX 15 22 0 -1
BITMAP
0360
03A0
02C0
0140
0000
0000
07F0
1BE8
2DDC
36B6
6B68
7410
B800
B800
B800
7400
6C38
57D4
2BEA
1774
0C98
03E0
ENDCHAR
STARTCHAR ccaron
ENCODING 269
SWIDTH 736 0
DWIDTH 13 0
BBX 13 20 0 -1
BITMAP
06C0
0740
0580
0280
0000
0000
0FE0
17D0
2BA8
5F70
74C0
B800
B800
B800
7440
6BA0
37D0
2EF8
1920
07C0
ENDCHAR
STARTCHAR Dcaron
ENCODING 270
SWIDTH 886 0
DWIDTH 16 0
BBX 14 21 1 0
BITMAP
0B40
0780
0580
0280
0100
0000
FF80
8060
FFF0
FFD8
EFB4
F06C
F05C
F03C
F03C
F05C
FFAC
E054
DFA8
FFD0
FFE0
ENDCHAR
STARTCHAR dcaron
ENCODING 271
SWIDTH 1084 0
DWIDTH 20 0
BBX 18 13 1 0
BITMAP
FF81C0
BF61C0
C0D0C0
FFA940
EF5880
F0BB00
F07400
F07400
FFD800
E0E800
DF5000
FFA000
FFC000
ENDCHAR
STARTCHAR Dcroat
ENCODING 272
SWIDTH 888 0
DWIDTH 16 0
BBX 16 15 -1 0
BITMAP
3FF0
2008
3FFC
3FF6
3BED
3C1B
BD97
BD8F
BD8F
3C17
3FEB
3815
37EA
3FF4
3FF8
ENDCHAR
STARTCHAR dcroat
ENCODING 273
SWIDTH 833 0
DWIDTH 15 0
BBX 15 13 -1 0
BITMAP
3FE0
2FD8
3034
3FEA
3BD6
3C2E
BD9E
BD9E
3FF6
383A
37D4
3FE8
3FF0
ENDCHAR
STARTCHAR Emacron
ENCODING 274
SWIDTH 706 0
DWIDTH 13 0
BBX 11 15 1 0
BITMAP
EFE0
F000
FFE0
EFE0
F000
F000
EF00
EF00
FF00
F000
F000
F000
FFE0
EFE0
EFE0
ENDCHAR
STARTCHAR emacron
ENCODING 275
SWIDTH 666 0
DWIDTH 12 0
BBX 10 13 1 0
BITMAP
EFC0
FFC0
F000
FFC0
F000
EFC0
EFC0
FFC0
F000
F000
FFC0
EFC0
EFC0
ENDCHAR
STARTCHAR Ebreve
ENCODING 276
SWIDTH 706 0
DWIDTH 13 0
BBX 11 18 1 0
BITMAP
1F00
0E00
0000
EFE0
F000
FFE0
EFE0
F000
F000
EF00
EF00
FF00
F000
F000
F000
FFE0
EFE0
EFE0
ENDCHAR
STARTCHAR ebreve
ENCODING 277
SWIDTH 666 0
DWIDTH 12 0
BBX 10 16 1 0
BITMAP
3F00
1E00
0000
EFC0
FFC0
F000
FFC0
F000
EFC0
EFC0
FFC0
F000
F000
FFC0
EFC0
EFC0
ENDCHAR
STARTCHAR Edotaccent
ENCODING 278
SWIDTH 706 0
DWIDTH 13 0
BBX 11 19 1 0
BITMAP
0E00
0E00
0E00
0000
EFE0
F000
FFE0
EFE0
F000
F000
EF00
EF00
FF00
F000
F000
F000
FFE0
EFE0
EFE0
ENDCHAR
STARTCHAR edotaccent
ENCODING 279
SWIDTH 666 0
DWIDTH 12 0
BBX 10 17 1 0
BITMAP
1E00
1E00
1E00
0000
EFC0
FFC0
F000
FFC0
F000
EFC0
EFC0
FFC0
F000
F000
FFC0
EFC0
EFC0
ENDCHAR
STARTCHAR Eogonek
ENCODING 280
SWIDTH 706 0
DWIDTH 13 0
BBX 11 20 1 -5
BITMAP
EFE0
F000
FFE0
EFE0
F000
F000
EF00
EF00
FF00
F000
F000
F000
FFE0
EFE0
EFE0
00A0
00C0
00C0
00E0
00E0
ENDCHAR
STARTCHAR eogonek
ENCODING 281
SWIDTH 666 0
DWIDTH 12 0
BBX 10 18 1 -5
BITMAP
EFC0
FFC0
F000
FFC0
F000
EFC0
EFC0
FFC0
F000
F000
FFC0
EFC0
EFC0
0100
01C0
0180
01C0
01C0
ENDCHAR
STARTCHAR Ecaron
ENCODING 282
SWIDTH 706 0
DWIDTH 13 0
BBX 11 21 1 0
BITMAP
1B00
1D00
1600
0A00
0000
0000
EFE0
F000
FFE0
EFE0
F000
F000
EF00
EF00
FF00
F000
F000
F000
FFE0
EFE0
EFE0
ENDCHAR
STARTCHAR ecaron
ENCODING 283
SWIDTH 666 0
DWIDTH 12 0
BBX 10 19 1 0
BITMAP
2D00
1E00
1600
0A00
0400
0000
EFC0
FFC0
F000
FFC0
F000
EFC0
EFC0
FFC0
F000
F000
FFC0
EFC0
EFC0
ENDCHAR
STARTCHAR Gbreve
ENCODING 286
SWIDTH 908 0
DWIDTH 16 0
BBX 16 19 0 -1
BITMAP
03E0
01C0
0000
07F0
1BE8
2DDC
36B6
6B68
7410
B800
B81B
B81B
B81B
6C1B
5FFB
2BFB
177B
0C9B
03E0
ENDCHAR
STARTCHAR gbreve
ENCODING 287
SWIDTH 827 0
DWIDTH 15 0
BBX 14 17 0 -1
BITMAP
07C0
0380
0000
0FE0
17D0
2BA8
5F70
74C0
B800
B800
B83C
747C
6BBC
37DC
2EDC
193C
07C0
ENDCHAR
STARTCHAR Gdotaccent
ENCODING 288
SWIDTH 908 0
DWIDTH 16 0
BBX 16 21 0 -1
BITMAP
01C0
0000
01C0
01C0
0000
07F0
1BE8
2DDC
36B6
6B68
7410
B800
B81B
B81B
B81B
6C1B
5FFB
2BFB
177B
0C9B
03E0
ENDCHAR
STARTCHAR gdotaccent
ENCODING 289
SWIDTH 827 0
DWIDTH 15 0
BBX 14 19 0 -1
BITMAP
0380
0000
0380
0380
0000
0FE0
17D0
2BA8
5F70
74C0
B800
B800
B83C
747C
6BBC
37DC
2EDC
193C
07C0
ENDCHAR
STARTCHAR Gcommaaccent
ENCODING 290
SWIDTH 908 0
DWIDTH 16 0
BBX 16 22 0 -7
BITMAP
07F0
1BE8
2DDC
36B6
6B68
7410
B800
B81B
B81B
B81B
6C1B
5FFB
2BFB
177B
0C9B
03E0
01C0
01C0
01C0
00C0
0140
0180
ENDCHAR
STARTCHAR gcommaaccent
ENCODING 291
SWIDTH 827 0
DWIDTH 15 0
BBX 14 14 0 -1
BITMAP
0FE0
17D0
2BA8
5F70
74C0
B800
B800
B83C
747C
6BBC
37DC
2EDC
193C
07C0
ENDCHAR
STARTCHAR Hcircumflex
ENCODING 292
SWIDTH 901 0
DWIDTH 16 0
BBX 14 21 1 0
BITMAP
0300
0680
0780
0740
0800
0000
F03C
F03C
F03C
F03C
F03C
F03C
EFFC
EFFC
FFFC
F03C
F03C
F03C
F03C
F03C
F03C
ENDCHAR
STARTCHAR hcircumflex
ENCODING 293
SWIDTH 830 0
DWIDTH 15 0
BBX 13 19 1 0
BITMAP
0500
0700
0A80
0D80
0000
0000
F0B8
F0B8
F0B8
F0B8
F0B8
FFB8
EFB8
EFB8
F0B8
F0B8
F0B8
F0B8
F0B8
ENDCHAR
STARTCHAR Hbar
ENCODING 294
SWIDTH 901 0
DWIDTH 16 0
BBX 18 15 -1 0
BITMAP
3C0E80
3C0E80
BDFEC0
BDFEC0
3C0E80
3C0E80
3BFE80
3BFE80
3FFE80
3C0E80
3C0E80
3C0E80
3C0E80
3C0E80
3C0E80
ENDCHAR
STARTCHAR hbar
ENCODING 295
SWIDTH 830 0
DWIDTH 15 0
BBX 15 13 0 0
BITMAP
783C
7BBE
783C
BBBE
783C
7FFC
77DC
77DC
783C
783C
783C
783C
783C
ENDCHAR
STARTCHAR Itilde
ENCODING 296
SWIDTH 338 0
DWIDTH 6 0
BBX 10 19 -2 0
BITMAP
FEC0
FF40
DF80
0000
1E00
1E00
1E00
1E00
1E00
1E00
1E00
1E00
1E00
1E00
1E00
1E00
1E00
1E00
1E00
ENDCHAR
STARTCHAR itilde
ENCODING 297
SWIDTH 337 0
DWIDTH 6 0
BBX 10 17 -2 0
BITMAP
FEC0
FF40
DF80
0000
1E00
1E00
1E00
1E00
1E00
1E00
1E00
1E00
1E00
1E00
1E00
1E00
1E00
ENDCHAR
STARTCHAR Imacron
ENCODING 298
SWIDTH 338 0
DWIDTH 6 0
BBX 4 15 1 0
BITMAP
F0
F0
F0
F0
F0
F0
F0
F0
F0
F0
F0
F0
F0
F0
F0
ENDCHAR
STARTCHAR imacron
ENCODING 299
SWIDTH 337 0
DWIDTH 6 0
BBX 4 13 1 0
BITMAP
F0
F0
F0
F0
F0
F0
F0
F0
F0
F0
F0
F0
F0
ENDCHAR
STARTCHAR Ibreve
ENCODING 300
SWIDTH 338 0
DWIDTH 6 0
BBX 6 18 0 0
BITMAP
FC
78
00
78
78
78
78
78
78
78
78
78
78
78
78
78
78
78
ENDCHAR
STARTCHAR ibreve
ENCODING 301
SWIDTH 337 0
DWIDTH 6 0
BBX 6 16 0 0
BITMAP
FC
78
00
78
78
78
78
78
78
78
78
78
78
78
78
78
ENDCHAR
STARTCHAR Iogonek
ENCODING 302
SWIDTH 338 0
DWIDTH 6 0
BBX 4 20 1 -5
BITMAP
F0
F0
F0
F0
F0
F0
F0
F0
F0
F0
F0
F0
F0
F0
F0
40
70
60
70
70
ENDCHAR
STARTCHAR iogonek
ENCODING 303
SWIDTH 337 0
DWIDTH 6 0
BBX 4 18 1 -5
BITMAP
F0
F0
F0
F0
F0
F0
F0
F0
F0
F0
F0
F0
F0
40
70
60
70
70
ENDCHAR
STARTCHAR Idotaccent
ENCODING 304
SWIDTH 338 0
DWIDTH 6 0
BBX 4 20 1 0
BITMAP
F0
00
F0
F0
00
F0
F0
F0
F0
F0
F0
F0
F0
F0
F0
F0
F0
F0
F0
F0
ENDCHAR
STARTCHAR dotlessi
ENCODING 305
SWIDTH 337 0
DWIDTH 6 0
BBX 4 13 1 0
BITMAP
F0
F0
F0
F0
F0
F0
F0
F0
F0
F0
F0
F0
F0
ENDCHAR
STARTCHAR IJ
ENCODING 306
SWIDTH 774 0
DWIDTH 14 0
BBX 12 16 1 -1
BITMAP
F170
F170
F170
F170
F170
F170
F170
F170
F170
F170
F170
F7B0
F750
F1A0
F6C0
0700
ENDCHAR
STARTCHAR ij
ENCODING 307
SWIDTH 729 0
DWIDTH 13 0
BBX 11 15 1 -2
BITMAP
F1E0
F1E0
F1E0
F1E0
F1E0
F1E0
F1E0
F1E0
F1E0
F1E0
F6E0
F360
F5C0
0680
0700
ENDCHAR
STARTCHAR Jcircumflex
ENCODING 308
SWIDTH 434 0
DWIDTH 8 0
BBX 8 22 0 -1
BITMAP
0C
1A
16
2E
11
00
2E
2E
2E
2E
2E
2E
2E
2E
2E
2E
2E
D6
EA
34
D8
E0
ENDCHAR
STARTCHAR jcircumflex
ENCODING 309
SWIDTH 393 0
DWIDTH 7 0
BBX 7 21 0 -2
BITMAP
18
34
2C
3A
40
00
3C
3C
3C
3C
3C
3C
3C
3C
3C
3C
DC
74
A8
D0
E0
ENDCHAR
STARTCHAR Kcommaaccent
ENCODING 310
SWIDTH 815 0
DWIDTH 15 0
BBX 13 22 1 -7
BITMAP
F0B8
F0E8
F170
F1D0
F2E0
F3A0
F5C0
F740
F6C0
F5A0
F360
F2D0
F1B0
F168
F0D8
0000
0700
0700
0700
0300
0500
0600
ENDCHAR
STARTCHAR kcommaaccent
ENCODING 311
SWIDTH 801 0
DWIDTH 14 0
BBX 13 20 1 -7
BITMAP
F0D8
F168
F1B0
F2D0
F360
F5C0
F740
F6C0
F5A0
F360
F1D0
F170
F0D8
0000
0700
0700
0700
0300
0500
0600
ENDCHAR
STARTCHAR kgreenlandic
ENCODING 312
SWIDTH 801 0
DWIDTH 14 0
BBX 13 13 1 0
BITMAP
F0D8
F168
F1B0
F2D0
F360
F5C0
F740
F6C0
F5A0
F360
F1D0
F170
F0D8
ENDCHAR
STARTCHAR Lacute
ENCODING 313
SWIDTH 604 0
DWIDTH 11 0
BBX 10 20 1 0
BITMAP
0080
07C0
1B00
0C00
0000
F000
F000
F000
F000
F000
F000
F000
F000
F000
F000
F000
F000
FF80
EF80
EF80
ENDCHAR
STARTCHAR lacute
ENCODING 314
SWIDTH 583 0
DWIDTH 11 0
BBX 9 18 1 0
BITMAP
0600
1B00
6C00
3000
0000
F000
F000
F000
F000
F000
F000
F000
F000
F000
F000
FF80
EF80
EF80
ENDCHAR
STARTCHAR Lcommaaccent
ENCODING 315
SWIDTH 604 0
DWIDTH 11 0
BBX 9 22 1 -7
BITMAP
F000
F000
F000
F000
F000
F000
F000
F000
F000
F000
F000
F000
FF80
EF80
EF80
0000
1C00
1C00
1C00
0C00
1400
1800
ENDCHAR
STARTCHAR lcommaaccent
ENCODING 316
SWIDTH 583 0
DWIDTH 11 0
BBX 9 20 1 -7
BITMAP
F000
F000
F000
F000
F000
F000
F000
F000
F000
F000
FF80
EF80
EF80
0000
1C00
1C00
1C00
0C00
1400
1800
ENDCHAR
STARTCHAR Lcaron
ENCODING 317
SWIDTH 856 0
DWIDTH 15 0
BBX 14 15 1 0
BITMAP
F02C
F02C
F00C
F014
F008
F030
F000
F000
F000
F000
F000
F000
FF80
EF80
EF80
ENDCHAR
STARTCHAR lcaron
ENCODING 318
SWIDTH 584 0
DWIDTH 11 0
BBX 9 13 1 0
BITMAP
F580
F580
F180
F280
F100
F600
F000
F000
F000
F000
FF80
EF80
EF80
ENDCHAR
STARTCHAR Ldot
ENCODING 319
SWIDTH 604 0
DWIDTH 11 0
BBX 9 15 1 0
BITMAP
F000
F000
F000
F000
F000
F000
F700
F700
F700
F000
F000
F000
FF80
EF80
EF80
ENDCHAR
STARTCHAR ldot
ENCODING 320
SWIDTH 582 0
DWIDTH 10 0
BBX 9 13 1 0
BITMAP
F000
F000
F000
F700
F700
F700
F000
F000
F000
F000
FF80
EF80
EF80
ENDCHAR
STARTCHAR Lslash
ENCODING 321
SWIDTH 604 0
DWIDTH 11 0
BBX 11 15 -1 0
BITMAP
3C00
3C00
3C00
3C00
3D80
3D80
DD80
3E00
BC00
BC00
3C00
3C00
3FE0
3BE0
3BE0
ENDCHAR
STARTCHAR lslash
ENCODING 322
SWIDTH 581 0
DWIDTH 10 0
BBX 11 13 -1 0
BITMAP
3C00
3C00
3C40
3D80
3D80
BD80
5E00
BC00
BC00
3C00
3FE0
3BE0
3BE0
ENDCHAR
STARTCHAR Nacute
ENCODING 323
SWIDTH 877 0
DWIDTH 16 0
BBX 14 20 1 0
BITMAP
0030
00D8
0760
0380
0000
D85C
B45C
EC5C
B65C
ED5C
DB5C
F6DC
EBDC
F6DC
F5AC
F36C
F2DC
F16C
F0DC
F0F4
ENDCHAR
STARTCHAR nacute
ENCODING 324
SWIDTH 787 0
DWIDTH 14 0
BBX 12 18 1 0
BITMAP
0060
01B0
06C0
0300
0000
D870
B470
EC70
BA70
ED70
DB70
F6F0
EDB0
EB70
E6F0
E370
E2D0
E1B0
ENDCHAR
STARTCHAR Ncommaaccent
ENCODING 325
SWIDTH 877 0
DWIDTH 16 0
BBX 14 22 1 -7
BITMAP
D85C
B45C
EC5C
B65C
ED5C
DB5C
F6DC
EBDC
F6DC
F5AC
F36C
F2DC
F16C
F0DC
F0B4
0040
0680
0680
0680
0280
0500
0600
ENDCHAR
STARTCHAR ncommaaccent
ENCODING 326
SWIDTH 787 0
DWIDTH 14 0
BBX 12 20 1 -7
BITMAP
D870
B470
EC70
BA70
ED70
DB70
F6F0
EDB0
EB70
E6F0
E370
E2D0
E1B0
0000
0B00
0B00
0B00
0300
0D00
0E00
ENDCHAR
STARTCHAR Ncaron
ENCODING 327
SWIDTH 877 0
DWIDTH 16 0
BBX 14 21 1 0
BITMAP
0D40
0780
0680
0700
0000
0000
D85C
B45C
EC5C
B65C
ED5C
DB5C
F6DC
EBDC
F6DC
F5AC
F36C
F2DC
F16C
F0DC
F0F4
ENDCHAR
STARTCHAR ncaron
ENCODING 328
SWIDTH 787 0
DWIDTH 14 0
BBX 12 19 1 0
BITMAP
1680
0F00
0B00
0500
0200
0000
D870
B470
EC70
BA70
ED70
DB70
F6F0
EDB0
EB70
E6F0
E370
E2D0
E1B0
ENDCHAR
STARTCHAR Eng
ENCODING 330
SWIDTH 874 0
DWIDTH 16 0
BBX 14 21 1 -6
BITMAP
D85C
B45C
EC5C
B65C
ED5C
DB5C
EDDC
EB5C
F6DC
F55C
F2DC
F1DC
F15C
F0DC
F05C
006C
01AC
01D8
0068
01B0
01C0
ENDCHAR
STARTCHAR eng
ENCODING 331
SWIDTH 691 0
DWIDTH 12 0
BBX 11 18 1 -5
BITMAP
D960
B560
ED60
BB60
ED60
DB60
F760
ED60
EB60
E560
E360
E360
E160
0160
01A0
03C0
0280
0300
ENDCHAR
STARTCHAR Omacron
ENCODING 332
SWIDTH 933 0
DWIDTH 17 0
BBX 16 16 0 -1
BITMAP
07F0
1BE8
2DDC
36B6
6B6D
741B
B817
B80F
B80F
7417
6C2B
57D6
2BEA
1774
0C98
03E0
ENDCHAR
STARTCHAR omacron
ENCODING 333
SWIDTH 833 0
DWIDTH 15 0
BBX 14 14 0 -1
BITMAP
0FE0
17D0
2BA8
5F74
74EC
B83C
B83C
B83C
745C
6BAC
37D8
2EF0
1960
0780
ENDCHAR
STARTCHAR Obreve
ENCODING 334
SWIDTH 933 0
DWIDTH 17 0
BBX 16 19 0 -1
BITMAP
03E0
01C0
0000
07F0
1BE8
2DDC
36B6
6B6D
741B
B817
B80F
B80F
7417
6C2B
57D6
2BEA
1774
0C98
03E0
ENDCHAR
STARTCHAR obreve
ENCODING 335
SWIDTH 833 0
DWIDTH 15 0
BBX 14 17 0 -1
BITMAP
07C0
0380
0000
0FE0
17D0
2BA8
5F74
74EC
B83C
B83C
B83C
745C
6BAC
37D8
2EF0
1960
0780
ENDCHAR
STARTCHAR Ohungarumlaut
ENCODING 336
SWIDTH 933 0
DWIDTH 17 0
BBX 18 21 0 -1
BITMAP
00C180
0367C0
0DBE00
061800
000000
07F000
1BE800
2DDC00
36B600
6B6D00
741B00
B81700
B80F00
B80F00
741700
6C2B00
57D600
2BEA00
177400
0C9800
03E000
ENDCHAR
STARTCHAR ohungarumlaut
ENCODING 337
SWIDTH 833 0
DWIDTH 15 0
BBX 17 19 0 -1
BITMAP
018300
06CD80
1B7E00
0C3000
000000
0FE000
17D000
2BA800
5F7400
74EC00
B83C00
B83A00
B83A00
745C00
6BAC00
37D800
2EF000
196000
078000
ENDCHAR
STARTCHAR OE
ENCODING 338
SWIDTH 1317 0
DWIDTH 24 0
BBX 23 16 0 -1
BITMAP
07F6FE
1BEF00
2DDFFE
36B6FE
6B6F00
741700
B816F0
B80EF0
B80FF0
741700
6C2F00
57D700
2BEFFE
1776FE
0C9EFE
03E000
ENDCHAR
STARTCHAR oe
ENCODING 339
SWIDTH 1174 0
DWIDTH 21 0
BBX 20 14 0 -1
BITMAP
0FFBF0
17DBF0
2BBA00
5F7BF0
74DA00
B83BF0
B83BF0
B83BF0
745A00
6BBA00
37DBF0
2EFBF0
193BF0
07C000
ENDCHAR
STARTCHAR Racute
ENCODING 340
SWIDTH 843 0
DWIDTH 15 0
BBX 14 20 1 0
BITMAP
0180
06C0
1B00
0C00
0000
FFC0
8030
FFE8
FFD8
EFB4
F06C
F7F4
F058
F7A8
F7D0
F7E0
F1D0
F170
F0F0
F0E8
ENDCHAR
STARTCHAR Rcommaaccent
ENCODING 342
SWIDTH 843 0
DWIDTH 15 0
BBX 14 22 1 -7
BITMAP
FFC0
8030
FFE8
FFD8
EFB4
F06C
F7F4
F058
F7A8
F7D0
F7E0
F1D0
F170
F0F0
F0E8
0000
0700
0700
0700
0300
0500
0600
ENDCHAR
STARTCHAR rcommaaccent
ENCODING 343
SWIDTH 831 0
DWIDTH 15 0
BBX 13 20 1 -7
BITMAP
FFC0
BFB0
C068
FFD8
EFB8
F078
F7B8
F7E8
F7D0
F7E0
F2E0
F1D0
F1F0
0000
0D00
0D00
0D00
0500
0E00
0E00
ENDCHAR
STARTCHAR Rcaron
ENCODING 344
SWIDTH 843 0
DWIDTH 15 0
BBX 14 21 1 0
BITMAP
5600
3C00
2C00
1400
0800
0000
FFC0
8030
FFE8
FFD8
EFB4
F06C
F7F4
F058
F7A8
F7D0
F7E0
F1D0
F170
F0F0
F0E8
ENDCHAR
STARTCHAR rcaron
ENCODING 345
SWIDTH 831 0
DWIDTH 15 0
BBX 13 19 1 0
BITMAP
0D80
0A80
0680
0700
0000
0000
FFC0
BFB0
C068
FFD8
EFB8
F078
F7B8
F7E8
F7D0
F7E0
F2E0
F1D0
F1F0
ENDCHAR
STARTCHAR Sacute
ENCODING 346
SWIDTH 682 0
DWIDTH 12 0
BBX 12 21 0 -1
BITMAP
0060
01B0
06C0
0300
0000
1FC0
2FB0
57E0
7E40
B980
BF00
78C0
57A0
2F60
1ED0
01B0
1ED0
7F60
B9A0
66C0
1F00
ENDCHAR
STARTCHAR sacute
ENCODING 347
SWIDTH 683 0
DWIDTH 12 0
BBX 12 18 0 0
BITMAP
0060
01B0
06C0
0300
0000
1FC0
2FB0
7760
B8C0
B000
6FC0
5FA0
3F50
00B0
20B0
7F50
DFA0
3FC0
ENDCHAR
STARTCHAR Scircumflex
ENCODING 348
SWIDTH 682 0
DWIDTH 12 0
BBX 12 22 0 -1
BITMAP
0600
0D00
0B00
0E80
1000
0000
1FC0
2FB0
57E0
7E40
B980
BF00
78C0
57A0
2F60
1ED0
01B0
1ED0
7F60
B9A0
66C0
1F00
ENDCHAR
STARTCHAR scircumflex
ENCODING 349
SWIDTH 683 0
DWIDTH 12 0
BBX 12 19 0 0
BITMAP
0600
0D00
0B00
0E80
1100
0000
1FC0
2FB0
7760
B8C0
B000
6FC0
5FA0
3F50
00B0
20B0
7F50
DFA0
3FC0
ENDCHAR
STARTCHAR Scedilla
ENCODING 350
SWIDTH 682 0
DWIDTH 12 0
BBX 12 21 0 -6
BITMAP
1FC0
2FB0
57E0
7E40
B980
BF00
78C0
57A0
2F60
1ED0
01B0
1ED0
7F60
B9A0
66C0
1F00
1200
1C00
1800
1600
0E00
ENDCHAR
STARTCHAR scedilla
ENCODING 351
SWIDTH 683 0
DWIDTH 12 0
BBX 12 19 0 -6
BITMAP
1FC0
2FB0
7760
B8C0
B000
6FC0
5FA0
3F50
00B0
20B0
7F50
DFA0
39C0
0600
1A00
1C00
1800
1600
0E00
ENDCHAR
STARTCHAR Scaron
ENCODING 352
SWIDTH 682 0
DWIDTH 12 0
BBX 12 22 0 -1
BITMAP
1580
0E80
0B00
0500
0000
0000
1FC0
2FB0
57E0
7E40
B980
BF00
78C0
57A0
2F60
1ED0
01B0
1ED0
7F60
B9A0
66C0
1F00
ENDCHAR
STARTCHAR scaron
ENCODING 353
SWIDTH 683 0
DWIDTH 12 0
BBX 12 19 0 0
BITMAP
1580
0E80
0B00
0500
0000
0000
1FC0
2FB0
7760
B8C0
B000
6FC0
5FA0
3F50
00B0
20B0
7F50
DFA0
3FC0
ENDCHAR
STARTCHAR Tcommaaccent
ENCODING 354
SWIDTH 591 0
DWIDTH 11 0
BBX 9 21 1 -6
BITMAP
FF80
0000
FF80
FF80
3A00
3A00
3A00
3A00
3A00
3A00
3A00
3A00
3A00
3A00
3A00
1800
6800
7000
6000
5800
3800
ENDCHAR
STARTCHAR tcommaaccent
ENCODING 355
SWIDTH 588 0
DWIDTH 11 0
BBX 9 19 1 -6
BITMAP
FF80
FF80
0000
FF80
3A00
3A00
3A00
3A00
3A00
3A00
3A00
3A00
3A00
1800
6800
7000
6000
5800
3800
ENDCHAR
STARTCHAR Tcaron
ENCODING 356
SWIDTH 591 0
DWIDTH 11 0
BBX 9 21 1 0
BITMAP
3600
3A00
2C00
1400
0000
0000
FF80
0000
FF80
FF80
3A00
3A00
3A00
3A00
3A00
3A00
3A00
3A00
3A00
3A00
3A00
ENDCHAR
STARTCHAR tcaron
ENCODING 357
SWIDTH 842 0
DWIDTH 15 0
BBX 14 13 1 0
BITMAP
FFB4
FFB4
0014
FFB4
3A08
3A30
3A00
3A00
3A00
3A00
3A00
3A00
3A00
ENDCHAR
STARTCHAR Tbar
ENCODING 358
SWIDTH 591 0
DWIDTH 11 0
BBX 9 15 1 0
BITMAP
FF80
0000
FF80
FF80
3A00
3A00
FB80
FB80
FB80
3A00
3A00
3A00
3A00
3A00
3A00
ENDCHAR
STARTCHAR tbar
ENCODING 359
SWIDTH 588 0
DWIDTH 11 0
BBX 9 13 1 0
BITMAP
FF80
FF80
0000
FF80
3A00
3A00
FB80
3A00
FB80
FB80
3A00
3A00
3A00
ENDCHAR
STARTCHAR Utilde
ENCODING 360
SWIDTH 905 0
DWIDTH 16 0
BBX 15 20 1 -1
BITMAP
3FA8
3FD0
37E0
0000
F03A
F03A
F03A
F03A
F03A
F03A
F03A
F03A
F03A
F03A
D85C
B7AC
5FD8
2CF0
1B60
0780
ENDCHAR
STARTCHAR utilde
ENCODING 361
SWIDTH 795 0
DWIDTH 14 0
BBX 13 18 1 -1
BITMAP
7F50
7FA0
6FC0
0000
F0E8
F0E8
F0E8
F0E8
F0E8
F0E8
F0E8
F0E8
E8E8
D7B0
AF50
59A0
36C0
0F00
ENDCHAR
STARTCHAR Umacron
ENCODING 362
SWIDTH 905 0
DWIDTH 16 0
BBX 15 16 1 -1
BITMAP
F03A
F03A
F03A
F03A
F03A
F03A
F03A
F03A
F03A
F03A
D85C
B7AC
5FD8
2CF0
1B60
0780
ENDCHAR
STARTCHAR umacron
ENCODING 363
SWIDTH 795 0
DWIDTH 14 0
BBX 13 14 1 -1
BITMAP
F0E8
F0E8
F0E8
F0E8
F0E8
F0E8
F0E8
F0E8
E8E8
D7B0
AF50
59A0
36C0
0F00
ENDCHAR
STARTCHAR Ubreve
ENCODING 364
SWIDTH 905 0
DWIDTH 16 0
BBX 15 19 1 -1
BITMAP
0FC0
0780
0000
F03A
F03A
F03A
F03A
F03A
F03A
F03A
F03A
F03A
F03A
D85C
B7AC
5FD8
2CF0
1B60
0780
ENDCHAR
STARTCHAR ubreve
ENCODING 365
SWIDTH 795 0
DWIDTH 14 0
BBX 13 17 1 -1
BITMAP
1F80
0F00
0000
F0E8
F0E8
F0E8
F0E8
F0E8
F0E8
F0E8
F0E8
E8E8
D7B0
AF50
59A0
36C0
0F00
ENDCHAR
STARTCHAR Uring
ENCODING 366
SWIDTH 905 0
DWIDTH 16 0
BBX 15 22 1 -1
BITMAP
0300
0780
0CC0
0740
0380
0000
F03A
F03A
F03A
F03A
F03A
F03A
F03A
F03A
F03A
F03A
D85C
B7AC
5FD8
2CF0
1B60
0780
ENDCHAR
STARTCHAR uring
ENCODING 367
SWIDTH 795 0
DWIDTH 14 0
BBX 13 20 1 -1
BITMAP
0600
0F00
0980
0E80
0700
0000
F0E8
F0E8
F0E8
F0E8
F0E8
F0E8
F0E8
F0E8
E8E8
D7B0
AF50
59A0
36C0
0F00
ENDCHAR
STARTCHAR Uhungarumlaut
ENCODING 368
SWIDTH 905 0
DWIDTH 16 0
BBX 16 21 1 -1
BITMAP
0186
06DB
3B6C
1C30
0000
F03A
F03A
F03A
F03A
F03A
F03A
F03A
F03A
F03A
F03A
D85C
B7AC
5FD8
2CF0
1B60
0780
ENDCHAR
STARTCHAR uhungarumlaut
ENCODING 369
SWIDTH 795 0
DWIDTH 14 0
BBX 15 19 1 -1
BITMAP
030C
0DB6
76D8
3860
0000
F0E8
F0E8
F0E8
F0E8
F0E8
F0E8
F0E8
F0E8
E8E8
D7B0
AF50
59A0
36C0
0F00
ENDCHAR
STARTCHAR Uogonek
ENCODING 370
SWIDTH 905 0
DWIDTH 16 0
BBX 15 21 1 -6
BITMAP
F03A
F03A
F03A
F03A
F03A
F03A
F03A
F03A
F03A
F03A
D85C
B7AC
5FD8
2CF0
1B60
0780
0500
0A00
0A00
0B00
0B00
ENDCHAR
STARTCHAR uogonek
ENCODING 371
SWIDTH 794 0
DWIDTH 14 0
BBX 13 19 1 -6
BITMAP
F0E8
F0E8
F0E8
F0E8
F0E8
F0E8
F0E8
F0E8
E8E8
D7B0
AF50
59A0
36C0
0F00
0A00
1400
1800
1A00
1A00
ENDCHAR
STARTCHAR Ycircumflex
ENCODING 374
SWIDTH 789 0
DWIDTH 14 0
BBX 14 21 0 0
BITMAP
0300
0680
0780
0740
0800
0000
D85C
7874
6CB8
3CE8
3770
1DD0
1EE0
17A0
0DC0
06C0
0780
0780
0780
0780
0780
ENDCHAR
STARTCHAR ycircumflex
ENCODING 375
SWIDTH 733 0
DWIDTH 13 0
BBX 13 19 0 0
BITMAP
0500
0700
0A80
0D80
0000
0000
D8B8
74E8
6D70
3BD0
2EE0
1BA0
1DC0
0F40
0B80
0B80
0B80
0B80
0B80
ENDCHAR
STARTCHAR Ydieresis
ENCODING 376
SWIDTH 789 0
DWIDTH 14 0
BBX 14 18 0 0
BITMAP
1CD0
1CD0
0000
D85C
7874
6CB8
3CE8
3770
1DD0
1EE0
17A0
0DC0
06C0
0780
0780
0780
0780
0780
ENDCHAR
STARTCHAR Zacute
ENCODING 377
SWIDTH 854 0
DWIDTH 15 0
BBX 14 20 1 0
BITMAP
0030
00F8
07C0
0300
0000
FFFC
0008
FFF4
FFDC
FDA8
02F4
0D58
17A0
6AC0
BD00
D7FC
E800
B7FC
DFFC
FFFC
ENDCHAR
STARTCHAR zacute
ENCODING 378
SWIDTH 714 0
DWIDTH 13 0
BBX 12 18 0 0
BITMAP
0060
01B0
06C0
0300
0000
7F50
7DB0
02D0
7F60
06A0
0B40
0D80
1680
2B00
3600
5BF0
6DF0
DFF0
ENDCHAR
STARTCHAR Zdotaccent
ENCODING 379
SWIDTH 854 0
DWIDTH 15 0
BBX 14 20 1 0
BITMAP
0700
0000
0700
0700
0000
FFFC
0008
FFF4
FFDC
FDA8
02F4
0D58
17A0
6AC0
BD00
D7FC
E800
B7FC
DFFC
FFFC
ENDCHAR
STARTCHAR zdotaccent
ENCODING 380
SWIDTH 714 0
DWIDTH 13 0
BBX 12 18 0 0
BITMAP
0700
0000
0700
0700
0000
7F50
7DB0
02D0
7F60
06A0
0B40
0D80
1680
2B00
3600
5BF0
6DF0
DFF0
ENDCHAR
STARTCHAR Zcaron
ENCODING 381
SWIDTH 854 0
DWIDTH 15 0
BBX 14 21 1 0
BITMAP
0D80
0B80
0680
0700
0000
0000
FFFC
0008
FFF4
FFDC
FDA8
02F4
0D58
17A0
6AC0
BD00
D7FC
E800
B7FC
DFFC
FFFC
ENDCHAR
STARTCHAR zcaron
ENCODING 382
SWIDTH 714 0
DWIDTH 13 0
BBX 12 19 0 0
BITMAP
0D80
0E80
0700
0700
0000
0000
7F50
7DB0
02D0
7F60
06A0
0B40
0D80
1680
2B00
3600
5BF0
6DF0
DFF0
ENDCHAR
STARTCHAR florin
ENCODING 402
SWIDTH 388 0
DWIDTH 7 0
BBX 5 16 1 -1
BITMAP
38
58
68
70
70
F8
F8
F8
70
70
70
70
70
B0
D0
E0
ENDCHAR
STARTCHAR uni01C4
ENCODING 452
SWIDTH 1740 0
DWIDTH 31 0
BBX 30 21 1 0
BITMAP
00000D80
00000A80
00000680
00000700
00000000
00000000
FF80FFFC
80600008
FFF0FFF4
FFD8FFDC
EFB4FDA8
F06C02F4
F05C0D58
F03A17A0
F03C6AC0
F05CBD00
FFAD57FC
E054E800
DFA8B7FC
FFD15FFC
FFE0FFFC
ENDCHAR
STARTCHAR uni01C5
ENCODING 453
SWIDTH 1601 0
DWIDTH 29 0
BBX 27 19 1 0
BITMAP
00001B00
00001D00
00000E00
00000E00
FF800000
80600000
FFF0FEA0
FFD8FB60
EFB405A0
F06CFEC0
F05C0D40
F03A1680
F03C1B00
F05C2D00
FFAC5600
E0546C00
DFA8B7E0
FFD0DBE0
FFE1BFE0
ENDCHAR
STARTCHAR Scommaaccent
ENCODING 536
SWIDTH 682 0
DWIDTH 12 0
BBX 12 22 0 -7
BITMAP
1FC0
2FB0
57E0
7E40
B980
BF00
78C0
57A0
2F60
1ED0
01B0
1ED0
7F60
B9A0
66C0
1F00
0D00
0D00
0D00
0500
0E00
0E00
ENDCHAR
STARTCHAR scommaaccent
ENCODING 537
SWIDTH 683 0
DWIDTH 12 0
BBX 12 20 0 -7
BITMAP
1FC0
2FB0
7760
B8C0
B000
6FC0
5FA0
3F50
00B0
20B0
7F50
DFA0
3FC0
0000
0B00
0B00
0B00
0500
0D00
0E00
ENDCHAR
STARTCHAR uni021A
ENCODING 538
SWIDTH 591 0
DWIDTH 11 0
BBX 9 22 1 -7
BITMAP
FF80
0000
FF80
FF80
3A00
3A00
3A00
3A00
3A00
3A00
3A00
3A00
3A00
3A00
3A00
0000
1C00
1C00
1C00
0C00
1400
1800
ENDCHAR
STARTCHAR uni021B
ENCODING 539
SWIDTH 588 0
DWIDTH 11 0
BBX 9 20 1 -7
BITMAP
FF80
FF80
0000
FF80
3A00
3A00
3A00
3A00
3A00
3A00
3A00
3A00
3A00
0000
1C00
1C00
1C00
0C00
1400
1800
ENDCHAR
STARTCHAR uni0237
ENCODING 567
SWIDTH 393 0
DWIDTH 7 0
BBX 6 15 0 -2
BITMAP
3C
3C
3C
3C
3C
3C
3C
3C
3C
3C
DC
74
A8
D0
E0
ENDCHAR
STARTCHAR circumflex
ENCODING 710
SWIDTH 376 0
DWIDTH 7 0
BBX 5 4 1 14
BITMAP
50
70
A8
D8
ENDCHAR
STARTCHAR caron
ENCODING 711
SWIDTH 362 0
DWIDTH 7 0
BBX 5 4 1 14
BITMAP
D8
E8
B0
50
ENDCHAR
STARTCHAR breve
ENCODING 728
SWIDTH 360 0
DWIDTH 7 0
BBX 5 2 1 14
BITMAP
F8
70
ENDCHAR
STARTCHAR dotaccent
ENCODING 729
SWIDTH 255 0
DWIDTH 5 0
BBX 3 4 1 11
BITMAP
E0
00
E0
E0
ENDCHAR
STARTCHAR ring
ENCODING 730
SWIDTH 330 0
DWIDTH 6 0
BBX 4 5 1 14
BITMAP
60
F0
90
F0
F0
ENDCHAR
STARTCHAR ogonek
ENCODING 731
SWIDTH 250 0
DWIDTH 5 0
BBX 3 6 1 -5
BITMAP
60
A0
C0
C0
E0
E0
ENDCHAR
STARTCHAR tilde
ENCODING 732
SWIDTH 665 0
DWIDTH 12 0
BBX 10 3 1 10
BITMAP
FEC0
FF40
DF80
ENDCHAR
STARTCHAR hungarumlaut
ENCODING 733
SWIDTH 837 0
DWIDTH 15 0
BBX 14 4 1 13
BITMAP
0C18
367C
DBE0
6180
ENDCHAR
STARTCHAR uni0307
ENCODING 775
SWIDTH 260 0
DWIDTH 5 0
BBX 3 3 1 7
BITMAP
E0
E0
E0
ENDCHAR
STARTCHAR uni030F
ENCODING 783
SWIDTH 554 0
DWIDTH 10 0
BBX 8 6 1 13
BITMAP
CC
CA
A6
65
53
33
ENDCHAR
STARTCHAR uni0311
ENCODING 785
SWIDTH 375 0
DWIDTH 7 0
BBX 5 2 1 14
BITMAP
F0
D8
ENDCHAR
STARTCHAR uni0326
ENCODING 806
SWIDTH 274 0
DWIDTH 5 0
BBX 3 6 1 -7
BITMAP
E0
E0
E0
60
A0
C0
ENDCHAR
STARTCHAR Omega
ENCODING 937
SWIDTH 92 0
DWIDTH 2 0
BBX 1 1 0 0
BITMAP
00
ENDCHAR
STARTCHAR uni00B5.dup2
ENCODING 956
SWIDTH 802 0
DWIDTH 14 0
BBX 13 15 1 -2
BITMAP
F0D8
F0D8
F0D8
F0D8
F0D8
F0D8
F0D8
F0D8
F0E8
F770
F7D0
F1A0
F6C0
F700
F000
ENDCHAR
STARTCHAR pi
ENCODING 960
SWIDTH 92 0
DWIDTH 2 0
BBX 1 1 0 0
BITMAP
00
ENDCHAR
STARTCHAR endash
ENCODING 8211
SWIDTH 473 0
DWIDTH 9 0
BBX 7 3 1 6
BITMAP
FE
FE
FE
ENDCHAR
STARTCHAR emdash
ENCODING 8212
SWIDTH 615 0
DWIDTH 11 0
BBX 9 3 1 6
BITMAP
FF80
FF80
FF80
ENDCHAR
STARTCHAR quoteleft
ENCODING 8216
SWIDTH 254 0
DWIDTH 5 0
BBX 3 6 1 9
BITMAP
60
80
E0
C0
E0
E0
ENDCHAR
STARTCHAR quoteright
ENCODING 8217
SWIDTH 251 0
DWIDTH 5 0
BBX 3 6 1 9
BITMAP
E0
E0
E0
60
A0
C0
ENDCHAR
STARTCHAR quotesinglbase
ENCODING 8218
SWIDTH 252 0
DWIDTH 5 0
BBX 3 6 1 -3
BITMAP
E0
E0
60
A0
40
80
ENDCHAR
STARTCHAR quotedblleft
ENCODING 8220
SWIDTH 535 0
DWIDTH 10 0
BBX 8 6 1 9
BITMAP
63
84
E7
C6
E7
E7
ENDCHAR
STARTCHAR quotedblright
ENCODING 8221
SWIDTH 532 0
DWIDTH 10 0
BBX 8 6 1 9
BITMAP
E7
E7
E7
63
A5
C6
ENDCHAR
STARTCHAR quotedblbase
ENCODING 8222
SWIDTH 533 0
DWIDTH 10 0
BBX 8 6 1 -3
BITMAP
E7
E7
63
A5
42
8C
ENDCHAR
STARTCHAR dagger
ENCODING 8224
SWIDTH 636 0
DWIDTH 11 0
BBX 10 15 1 0
BITMAP
2E00
2E00
2E00
EFC0
EFC0
2E00
EFC0
2E00
2E00
2E00
2E00
2E00
2E00
2E00
2E00
ENDCHAR
STARTCHAR daggerdbl
ENCODING 8225
SWIDTH 648 0
DWIDTH 12 0
BBX 10 15 1 0
BITMAP
1E00
1E00
1E00
EDC0
EDC0
1E00
FFC0
1E00
1E00
EDC0
EDC0
FFC0
1E00
1E00
1E00
ENDCHAR
STARTCHAR bullet
ENCODING 8226
SWIDTH 501 0
DWIDTH 9 0
BBX 7 8 1 2
BITMAP
7C
BA
C6
C6
C6
BE
44
38
ENDCHAR
STARTCHAR ellipsis
ENCODING 8230
SWIDTH 676 0
DWIDTH 12 0
BBX 10 3 1 0
BITMAP
FFC0
FFC0
FFC0
ENDCHAR
STARTCHAR perthousand
ENCODING 8240
SWIDTH 447 0
DWIDTH 8 0
BBX 8 17 0 -2
BITMAP
0B
0D
0E
16
16
1A
1C
2C
2C
34
38
58
58
68
70
B0
B0
ENDCHAR
STARTCHAR guilsinglleft
ENCODING 8249
SWIDTH 465 0
DWIDTH 8 0
BBX 7 9 1 2
BITMAP
06
3A
DC
66
B8
F6
6C
1A
06
ENDCHAR
STARTCHAR guilsinglright
ENCODING 8250
SWIDTH 465 0
DWIDTH 8 0
BBX 7 9 1 2
BITMAP
C0
B0
6E
DC
3A
D6
6C
F0
80
ENDCHAR
STARTCHAR fraction
ENCODING 8260
SWIDTH 447 0
DWIDTH 8 0
BBX 8 17 0 -2
BITMAP
0B
0D
0E
16
16
1A
1C
2C
2C
34
38
58
58
68
70
B0
B0
ENDCHAR
STARTCHAR uni2074
ENCODING 8308
SWIDTH 528 0
DWIDTH 10 0
BBX 8 12 1 3
BITMAP
2C
34
58
68
70
D6
E6
FF
FF
FF
00
06
ENDCHAR
STARTCHAR Euro
ENCODING 8364
SWIDTH 781 0
DWIDTH 14 0
BBX 14 16 0 -1
BITMAP
03FC
05F8
0EF0
1B68
2D98
3600
DBE0
3C00
FDE0
3A00
3500
1AF0
15F8
0B98
066C
01F0
ENDCHAR
STARTCHAR trademark
ENCODING 8482
SWIDTH 1503 0
DWIDTH 27 0
BBX 25 11 1 4
BITMAP
FFAC0580
003A0680
FFB60B80
FFAD0D80
1C2B1780
1C369B80
1C3DAD80
1C377780
1C36DB80
1C35AB80
1C35F380
ENDCHAR
STARTCHAR partialdiff
ENCODING 8706
SWIDTH 108 0
DWIDTH 2 0
BBX 1 1 0 0
BITMAP
00
ENDCHAR
STARTCHAR uni2206
ENCODING 8710
SWIDTH 108 0
DWIDTH 2 0
BBX 1 1 0 0
BITMAP
00
ENDCHAR
STARTCHAR product
ENCODING 8719
SWIDTH 521 0
DWIDTH 9 0
BBX 9 13 0 0
BITMAP
1A00
1600
2E00
3D00
5B00
6E80
B580
7680
6B00
5B00
3500
2E00
1A00
ENDCHAR
STARTCHAR summation
ENCODING 8721
SWIDTH 108 0
DWIDTH 2 0
BBX 1 1 0 0
BITMAP
00
ENDCHAR
STARTCHAR minus
ENCODING 8722
SWIDTH 555 0
DWIDTH 10 0
BBX 8 4 1 6
BITMAP
FF
00
FF
FF
ENDCHAR
STARTCHAR radical
ENCODING 8730
SWIDTH 108 0
DWIDTH 2 0
BBX 1 1 0 0
BITMAP
00
ENDCHAR
STARTCHAR infinity
ENCODING 8734
SWIDTH 108 0
DWIDTH 2 0
BBX 1 1 0 0
BITMAP
00
ENDCHAR
STARTCHAR integral
ENCODING 8747
SWIDTH 362 0
DWIDTH 7 0
BBX 6 16 0 -1
BITMAP
1C
2C
34
58
58
58
58
58
58
58
58
58
58
D8
F0
E0
ENDCHAR
STARTCHAR approxequal
ENCODING 8776
SWIDTH 665 0
DWIDTH 12 0
BBX 10 8 1 5
BITMAP
FEC0
FF40
DF80
0000
0000
FEC0
FF40
DF80
ENDCHAR
STARTCHAR notequal
ENCODING 8800
SWIDTH 473 0
DWIDTH 9 0
BBX 8 17 0 -2
BITMAP
0B
0D
0E
16
7F
7F
1C
6F
2C
7F
3F
58
7F
68
70
B0
B0
ENDCHAR
STARTCHAR lessequal
ENCODING 8804
SWIDTH 108 0
DWIDTH 2 0
BBX 1 1 0 0
BITMAP
00
ENDCHAR
STARTCHAR greaterequal
ENCODING 8805
SWIDTH 108 0
DWIDTH 2 0
BBX 1 1 0 0
BITMAP
00
ENDCHAR
STARTCHAR lozenge
ENCODING 9674
SWIDTH 521 0
DWIDTH 9 0
BBX 9 13 0 0
BITMAP
1A00
1600
2E00
3D00
5B00
6E80
B580
7680
6B00
5B00
3500
2E00
1A00
ENDCHAR
STARTCHAR uniF8FF
ENCODING 63743
SWIDTH 108 0
DWIDTH 2 0
BBX 1 1 0 0
BITMAP
00
ENDCHAR
STARTCHAR uniFB01
ENCODING 64257
SWIDTH 962 0
DWIDTH 17 0
BBX 16 13 1 0
BITMAP
EFDD
FFDD
F01D
FFDD
F01D
EF9D
F01D
FF9D
EF9D
F01D
F01D
F01D
F01D
ENDCHAR
STARTCHAR uniFB02
ENCODING 64258
SWIDTH 1208 0
DWIDTH 22 0
BBX 20 13 1 0
BITMAP
EFDD00
FFDD00
F01D00
FFDD00
F01D00
EF9D00
F01D00
FF9D00
EF9D00
F01D00
F01DF0
F01DF0
F01DF0
ENDCHAR
STARTCHAR .notdef
ENCODING -1
SWIDTH 108 0
DWIDTH 2 0
BBX 1 1 0 0
BITMAP
00
ENDCHAR
ENDFONT
